<mxfile host="app.diagrams.net" agent="Mozilla/5.0 (Macintosh; Intel Mac OS X 10_15_7) AppleWebKit/537.36 (KHTML, like Gecko) Chrome/133.0.0.0 Safari/537.36" version="26.0.15">
  <diagram name="Page-1" id="42789a77-a242-8287-6e28-9cd8cfd52e62">
    <mxGraphModel dx="1674" dy="1635" grid="1" gridSize="10" guides="1" tooltips="1" connect="1" arrows="1" fold="1" page="1" pageScale="1" pageWidth="1100" pageHeight="850" background="none" math="0" shadow="0">
      <root>
        <mxCell id="0" />
        <mxCell id="1" parent="0" />
        <mxCell id="1ea317790d2ca983-14" value="Strategy(策略)" style="edgeStyle=none;rounded=1;html=1;labelBackgroundColor=none;startArrow=none;startFill=0;startSize=5;endArrow=classicThin;endFill=1;endSize=5;jettySize=auto;orthogonalLoop=1;strokeColor=#B3B3B3;strokeWidth=1;fontFamily=Verdana;fontSize=12;exitX=1;exitY=0.5;exitDx=0;exitDy=0;" parent="1" source="1ea317790d2ca983-1" target="1ea317790d2ca983-3" edge="1">
          <mxGeometry relative="1" as="geometry" />
        </mxCell>
        <mxCell id="1ea317790d2ca983-1" value="Low performance&lt;div&gt;(低性能)&lt;/div&gt;" style="ellipse;whiteSpace=wrap;html=1;rounded=0;shadow=1;comic=0;labelBackgroundColor=none;strokeWidth=1;fontFamily=Verdana;fontSize=12;align=center;" parent="1" vertex="1">
          <mxGeometry x="405" y="-760" width="130" height="80" as="geometry" />
        </mxCell>
        <mxCell id="1ea317790d2ca983-15" value="problem" style="edgeStyle=none;rounded=1;html=1;labelBackgroundColor=none;startArrow=none;startFill=0;startSize=5;endArrow=classicThin;endFill=1;endSize=5;jettySize=auto;orthogonalLoop=1;strokeColor=#B3B3B3;strokeWidth=1;fontFamily=Verdana;fontSize=12" parent="1" source="1ea317790d2ca983-3" target="1ea317790d2ca983-4" edge="1">
          <mxGeometry relative="1" as="geometry" />
        </mxCell>
        <mxCell id="1ea317790d2ca983-3" value="&lt;span&gt;Sharding(分片)&lt;/span&gt;" style="ellipse;whiteSpace=wrap;html=1;rounded=0;shadow=1;comic=0;labelBackgroundColor=none;strokeWidth=1;fontFamily=Verdana;fontSize=12;align=center;" parent="1" vertex="1">
          <mxGeometry x="670" y="-700" width="150" height="90" as="geometry" />
        </mxCell>
        <mxCell id="1ea317790d2ca983-16" value="Strategy(策略)" style="edgeStyle=none;rounded=1;html=1;labelBackgroundColor=none;startArrow=none;startFill=0;startSize=5;endArrow=classicThin;endFill=1;endSize=5;jettySize=auto;orthogonalLoop=1;strokeColor=#B3B3B3;strokeWidth=1;fontFamily=Verdana;fontSize=12" parent="1" source="1ea317790d2ca983-4" target="1ea317790d2ca983-5" edge="1">
          <mxGeometry relative="1" as="geometry" />
        </mxCell>
        <mxCell id="1ea317790d2ca983-4" value="&lt;span&gt;&amp;nbsp;Faults&lt;/span&gt;" style="ellipse;whiteSpace=wrap;html=1;rounded=0;shadow=1;comic=0;labelBackgroundColor=none;strokeWidth=1;fontFamily=Verdana;fontSize=12;align=center;" parent="1" vertex="1">
          <mxGeometry x="670" y="-560" width="150" height="90" as="geometry" />
        </mxCell>
        <mxCell id="1ea317790d2ca983-5" value="&lt;span style=&quot;color: rgb(15, 34, 22); font-family: __Roboto_7d852e, __Roboto_Fallback_7d852e, system-ui, arial; font-size: medium; text-align: start; white-space-collapse: preserve; background-color: rgb(254, 255, 255);&quot;&gt;replication&lt;/span&gt;&lt;div&gt;&lt;span style=&quot;color: rgb(15, 34, 22); font-family: __Roboto_7d852e, __Roboto_Fallback_7d852e, system-ui, arial; font-size: medium; text-align: start; white-space-collapse: preserve; background-color: rgb(254, 255, 255);&quot;&gt;(用复制容错)&lt;/span&gt;&lt;/div&gt;" style="ellipse;whiteSpace=wrap;html=1;rounded=0;shadow=1;comic=0;labelBackgroundColor=none;strokeWidth=1;fontFamily=Verdana;fontSize=12;align=center;" parent="1" vertex="1">
          <mxGeometry x="400" y="-555" width="140" height="80" as="geometry" />
        </mxCell>
        <mxCell id="X6ar820ibdrYWvEe7eP_-1" value="High performance&lt;div&gt;(高性能)&lt;/div&gt;" style="ellipse;whiteSpace=wrap;html=1;rounded=0;shadow=1;comic=0;labelBackgroundColor=none;strokeWidth=1;fontFamily=Verdana;fontSize=12;align=center;" parent="1" vertex="1">
          <mxGeometry x="900" y="-695" width="150" height="90" as="geometry" />
        </mxCell>
        <mxCell id="X6ar820ibdrYWvEe7eP_-2" value="results" style="edgeStyle=none;rounded=1;html=1;labelBackgroundColor=none;startArrow=none;startFill=0;startSize=5;endArrow=classicThin;endFill=1;endSize=5;jettySize=auto;orthogonalLoop=1;strokeColor=#B3B3B3;strokeWidth=1;fontFamily=Verdana;fontSize=12;exitX=1;exitY=0.5;exitDx=0;exitDy=0;entryX=0;entryY=0.5;entryDx=0;entryDy=0;" parent="1" source="1ea317790d2ca983-3" target="X6ar820ibdrYWvEe7eP_-1" edge="1">
          <mxGeometry relative="1" as="geometry">
            <mxPoint x="820" y="-580" as="sourcePoint" />
            <mxPoint x="950" y="-526" as="targetPoint" />
          </mxGeometry>
        </mxCell>
        <mxCell id="X6ar820ibdrYWvEe7eP_-3" value="&lt;div&gt;&lt;span style=&quot;color: rgb(15, 34, 22); font-family: __Roboto_7d852e, __Roboto_Fallback_7d852e, system-ui, arial; font-size: medium; text-align: start; white-space-collapse: preserve; background-color: rgb(254, 255, 255);&quot;&gt;inconsistency&lt;/span&gt;&lt;/div&gt;&lt;div&gt;&lt;span style=&quot;color: rgb(15, 34, 22); font-family: __Roboto_7d852e, __Roboto_Fallback_7d852e, system-ui, arial; font-size: medium; text-align: start; white-space-collapse: preserve; background-color: rgb(254, 255, 255);&quot;&gt;(低一致性)&lt;/span&gt;&lt;/div&gt;" style="ellipse;whiteSpace=wrap;html=1;rounded=0;shadow=1;comic=0;labelBackgroundColor=none;strokeWidth=1;fontFamily=Verdana;fontSize=12;align=center;" parent="1" vertex="1">
          <mxGeometry x="130" y="-555" width="140" height="80" as="geometry" />
        </mxCell>
        <mxCell id="X6ar820ibdrYWvEe7eP_-4" value="problem" style="edgeStyle=none;rounded=1;html=1;labelBackgroundColor=none;startArrow=none;startFill=0;startSize=5;endArrow=classicThin;endFill=1;endSize=5;jettySize=auto;orthogonalLoop=1;strokeColor=#B3B3B3;strokeWidth=1;fontFamily=Verdana;fontSize=12;exitX=0;exitY=0.5;exitDx=0;exitDy=0;entryX=1;entryY=0.5;entryDx=0;entryDy=0;" parent="1" source="1ea317790d2ca983-5" target="X6ar820ibdrYWvEe7eP_-3" edge="1">
          <mxGeometry relative="1" as="geometry">
            <mxPoint x="350" y="-290" as="sourcePoint" />
            <mxPoint x="350" y="-240" as="targetPoint" />
          </mxGeometry>
        </mxCell>
        <mxCell id="X6ar820ibdrYWvEe7eP_-5" value="&lt;div&gt;&lt;span style=&quot;color: rgb(15, 34, 22); font-family: __Roboto_7d852e, __Roboto_Fallback_7d852e, system-ui, arial; font-size: medium; text-align: start; white-space-collapse: preserve; background-color: rgb(254, 255, 255);&quot;&gt;consistency&lt;/span&gt;&lt;/div&gt;&lt;div&gt;&lt;span style=&quot;color: rgb(15, 34, 22); font-family: __Roboto_7d852e, __Roboto_Fallback_7d852e, system-ui, arial; font-size: medium; text-align: start; white-space-collapse: preserve; background-color: rgb(254, 255, 255);&quot;&gt;(一致性)&lt;/span&gt;&lt;/div&gt;" style="ellipse;whiteSpace=wrap;html=1;rounded=0;shadow=1;comic=0;labelBackgroundColor=none;strokeWidth=1;fontFamily=Verdana;fontSize=12;align=center;" parent="1" vertex="1">
          <mxGeometry x="130" y="-690" width="140" height="80" as="geometry" />
        </mxCell>
        <mxCell id="X6ar820ibdrYWvEe7eP_-7" value="Strategy(策略)" style="edgeStyle=none;rounded=1;html=1;labelBackgroundColor=none;startArrow=none;startFill=0;startSize=5;endArrow=classicThin;endFill=1;endSize=5;jettySize=auto;orthogonalLoop=1;strokeColor=#B3B3B3;strokeWidth=1;fontFamily=Verdana;fontSize=12;exitX=0.5;exitY=0;exitDx=0;exitDy=0;entryX=0.5;entryY=1;entryDx=0;entryDy=0;" parent="1" source="X6ar820ibdrYWvEe7eP_-3" target="X6ar820ibdrYWvEe7eP_-5" edge="1">
          <mxGeometry relative="1" as="geometry">
            <mxPoint x="290" y="-490" as="sourcePoint" />
            <mxPoint x="416" y="-440" as="targetPoint" />
          </mxGeometry>
        </mxCell>
        <mxCell id="X6ar820ibdrYWvEe7eP_-8" value="Strategy(策略)" style="edgeStyle=none;rounded=1;html=1;labelBackgroundColor=none;startArrow=none;startFill=0;startSize=5;endArrow=classicThin;endFill=1;endSize=5;jettySize=auto;orthogonalLoop=1;strokeColor=#B3B3B3;strokeWidth=1;fontFamily=Verdana;fontSize=12;entryX=0;entryY=0.5;entryDx=0;entryDy=0;exitX=1;exitY=0;exitDx=0;exitDy=0;" parent="1" source="X6ar820ibdrYWvEe7eP_-5" target="1ea317790d2ca983-1" edge="1">
          <mxGeometry relative="1" as="geometry">
            <mxPoint x="704" y="-472" as="sourcePoint" />
            <mxPoint x="546" y="-370" as="targetPoint" />
          </mxGeometry>
        </mxCell>
        <mxCell id="WMMUxBecpCihCAzd6EAW-1" value="" style="whiteSpace=wrap;html=1;aspect=fixed;" parent="1" vertex="1">
          <mxGeometry x="530" y="500" width="220" height="220" as="geometry" />
        </mxCell>
        <mxCell id="WMMUxBecpCihCAzd6EAW-2" value="" style="whiteSpace=wrap;html=1;aspect=fixed;" parent="1" vertex="1">
          <mxGeometry x="730" y="1045" width="220" height="220" as="geometry" />
        </mxCell>
        <mxCell id="WMMUxBecpCihCAzd6EAW-3" value="" style="whiteSpace=wrap;html=1;aspect=fixed;" parent="1" vertex="1">
          <mxGeometry x="910" y="500" width="220" height="220" as="geometry" />
        </mxCell>
        <mxCell id="WMMUxBecpCihCAzd6EAW-4" value="" style="endArrow=classic;startArrow=classic;html=1;rounded=0;entryX=0;entryY=0.5;entryDx=0;entryDy=0;exitX=1;exitY=0;exitDx=0;exitDy=0;" parent="1" source="WMMUxBecpCihCAzd6EAW-2" target="WMMUxBecpCihCAzd6EAW-17" edge="1">
          <mxGeometry width="50" height="50" relative="1" as="geometry">
            <mxPoint x="700" y="830" as="sourcePoint" />
            <mxPoint x="750" y="780" as="targetPoint" />
          </mxGeometry>
        </mxCell>
        <mxCell id="WMMUxBecpCihCAzd6EAW-5" value="" style="endArrow=classic;startArrow=classic;html=1;rounded=0;entryX=1;entryY=0.5;entryDx=0;entryDy=0;exitX=0;exitY=0;exitDx=0;exitDy=0;" parent="1" source="WMMUxBecpCihCAzd6EAW-2" target="WMMUxBecpCihCAzd6EAW-19" edge="1">
          <mxGeometry width="50" height="50" relative="1" as="geometry">
            <mxPoint x="920" y="930" as="sourcePoint" />
            <mxPoint x="1000" y="740" as="targetPoint" />
          </mxGeometry>
        </mxCell>
        <mxCell id="WMMUxBecpCihCAzd6EAW-6" value="" style="endArrow=classic;startArrow=classic;html=1;rounded=0;entryX=0;entryY=0.5;entryDx=0;entryDy=0;exitX=1;exitY=0.5;exitDx=0;exitDy=0;" parent="1" source="WMMUxBecpCihCAzd6EAW-1" target="WMMUxBecpCihCAzd6EAW-3" edge="1">
          <mxGeometry width="50" height="50" relative="1" as="geometry">
            <mxPoint x="930" y="940" as="sourcePoint" />
            <mxPoint x="1010" y="750" as="targetPoint" />
          </mxGeometry>
        </mxCell>
        <mxCell id="WMMUxBecpCihCAzd6EAW-7" value="Client2" style="ellipse;whiteSpace=wrap;html=1;fillColor=light-dark(#009900,var(--ge-dark-color, #121212));" parent="1" vertex="1">
          <mxGeometry x="80" y="680" width="120" height="80" as="geometry" />
        </mxCell>
        <mxCell id="WMMUxBecpCihCAzd6EAW-8" value="Client1" style="ellipse;whiteSpace=wrap;html=1;fillColor=light-dark(#009900,var(--ge-dark-color, #121212));" parent="1" vertex="1">
          <mxGeometry x="80" y="530" width="120" height="80" as="geometry" />
        </mxCell>
        <mxCell id="WMMUxBecpCihCAzd6EAW-9" value="" style="shape=flexArrow;endArrow=classic;html=1;rounded=0;" parent="1" edge="1">
          <mxGeometry width="50" height="50" relative="1" as="geometry">
            <mxPoint x="220" y="540" as="sourcePoint" />
            <mxPoint x="440" y="540" as="targetPoint" />
          </mxGeometry>
        </mxCell>
        <mxCell id="WMMUxBecpCihCAzd6EAW-13" value="Get Request" style="edgeLabel;html=1;align=center;verticalAlign=middle;resizable=0;points=[];" parent="WMMUxBecpCihCAzd6EAW-9" vertex="1" connectable="0">
          <mxGeometry x="-0.0732" y="3" relative="1" as="geometry">
            <mxPoint as="offset" />
          </mxGeometry>
        </mxCell>
        <mxCell id="WMMUxBecpCihCAzd6EAW-11" value="" style="shape=flexArrow;endArrow=classic;html=1;rounded=0;" parent="1" edge="1">
          <mxGeometry width="50" height="50" relative="1" as="geometry">
            <mxPoint x="220" y="710" as="sourcePoint" />
            <mxPoint x="470" y="650" as="targetPoint" />
          </mxGeometry>
        </mxCell>
        <mxCell id="WMMUxBecpCihCAzd6EAW-12" value="Put Request" style="edgeLabel;html=1;align=center;verticalAlign=middle;resizable=0;points=[];" parent="WMMUxBecpCihCAzd6EAW-11" vertex="1" connectable="0">
          <mxGeometry x="-0.1235" y="5" relative="1" as="geometry">
            <mxPoint as="offset" />
          </mxGeometry>
        </mxCell>
        <mxCell id="WMMUxBecpCihCAzd6EAW-14" value="node1" style="rounded=1;whiteSpace=wrap;html=1;" parent="1" vertex="1">
          <mxGeometry x="540" y="510" width="60" height="30" as="geometry" />
        </mxCell>
        <mxCell id="WMMUxBecpCihCAzd6EAW-15" value="node2" style="rounded=1;whiteSpace=wrap;html=1;" parent="1" vertex="1">
          <mxGeometry x="920" y="510" width="60" height="30" as="geometry" />
        </mxCell>
        <mxCell id="WMMUxBecpCihCAzd6EAW-17" value="" style="whiteSpace=wrap;html=1;aspect=fixed;" parent="1" vertex="1">
          <mxGeometry x="1190" y="835" width="220" height="220" as="geometry" />
        </mxCell>
        <mxCell id="WMMUxBecpCihCAzd6EAW-18" value="node4" style="rounded=1;whiteSpace=wrap;html=1;" parent="1" vertex="1">
          <mxGeometry x="740" y="1055" width="60" height="30" as="geometry" />
        </mxCell>
        <mxCell id="WMMUxBecpCihCAzd6EAW-19" value="" style="whiteSpace=wrap;html=1;aspect=fixed;" parent="1" vertex="1">
          <mxGeometry x="270" y="835" width="220" height="220" as="geometry" />
        </mxCell>
        <mxCell id="WMMUxBecpCihCAzd6EAW-20" value="node5" style="rounded=1;whiteSpace=wrap;html=1;" parent="1" vertex="1">
          <mxGeometry x="290" y="855" width="60" height="30" as="geometry" />
        </mxCell>
        <mxCell id="WMMUxBecpCihCAzd6EAW-16" value="node3" style="rounded=1;whiteSpace=wrap;html=1;" parent="1" vertex="1">
          <mxGeometry x="1210" y="845" width="60" height="30" as="geometry" />
        </mxCell>
        <mxCell id="WMMUxBecpCihCAzd6EAW-22" value="" style="endArrow=classic;startArrow=classic;html=1;rounded=0;entryX=1;entryY=0.5;entryDx=0;entryDy=0;exitX=0.5;exitY=1;exitDx=0;exitDy=0;" parent="1" source="WMMUxBecpCihCAzd6EAW-1" target="WMMUxBecpCihCAzd6EAW-19" edge="1">
          <mxGeometry width="50" height="50" relative="1" as="geometry">
            <mxPoint x="890" y="940" as="sourcePoint" />
            <mxPoint x="640" y="880" as="targetPoint" />
          </mxGeometry>
        </mxCell>
        <mxCell id="WMMUxBecpCihCAzd6EAW-23" value="" style="endArrow=classic;startArrow=classic;html=1;rounded=0;entryX=0.5;entryY=1;entryDx=0;entryDy=0;exitX=0;exitY=0.5;exitDx=0;exitDy=0;" parent="1" source="WMMUxBecpCihCAzd6EAW-17" target="WMMUxBecpCihCAzd6EAW-3" edge="1">
          <mxGeometry width="50" height="50" relative="1" as="geometry">
            <mxPoint x="1205" y="880" as="sourcePoint" />
            <mxPoint x="955" y="820" as="targetPoint" />
          </mxGeometry>
        </mxCell>
        <mxCell id="WMMUxBecpCihCAzd6EAW-24" value="Leader" style="ellipse;whiteSpace=wrap;html=1;fillColor=light-dark(#FF3200,var(--ge-dark-color, #121212));" parent="1" vertex="1">
          <mxGeometry x="670" y="510" width="70" height="40" as="geometry" />
        </mxCell>
        <mxCell id="WMMUxBecpCihCAzd6EAW-25" value="Worker" style="ellipse;whiteSpace=wrap;html=1;fillColor=light-dark(#FFC4B2,var(--ge-dark-color, #121212));" parent="1" vertex="1">
          <mxGeometry x="1060" y="510" width="70" height="40" as="geometry" />
        </mxCell>
        <mxCell id="WMMUxBecpCihCAzd6EAW-26" value="Worker" style="ellipse;whiteSpace=wrap;html=1;fillColor=light-dark(#FFC4B2,var(--ge-dark-color, #121212));" parent="1" vertex="1">
          <mxGeometry x="1330" y="840" width="70" height="40" as="geometry" />
        </mxCell>
        <mxCell id="WMMUxBecpCihCAzd6EAW-27" value="Worker" style="ellipse;whiteSpace=wrap;html=1;fillColor=light-dark(#FFC4B2,var(--ge-dark-color, #121212));" parent="1" vertex="1">
          <mxGeometry x="870" y="1050" width="70" height="40" as="geometry" />
        </mxCell>
        <mxCell id="WMMUxBecpCihCAzd6EAW-28" value="Worker" style="ellipse;whiteSpace=wrap;html=1;fillColor=light-dark(#FFC4B2,var(--ge-dark-color, #121212));" parent="1" vertex="1">
          <mxGeometry x="410" y="845" width="70" height="40" as="geometry" />
        </mxCell>
        <mxCell id="WMMUxBecpCihCAzd6EAW-29" value="" style="shape=table;startSize=0;container=1;collapsible=0;childLayout=tableLayout;fontSize=16;movable=1;resizable=1;rotatable=1;deletable=1;editable=1;locked=0;connectable=1;" parent="1" vertex="1">
          <mxGeometry x="290" y="915" width="90" height="110" as="geometry" />
        </mxCell>
        <mxCell id="WMMUxBecpCihCAzd6EAW-30" value="" style="shape=tableRow;horizontal=0;startSize=0;swimlaneHead=0;swimlaneBody=0;strokeColor=inherit;top=0;left=0;bottom=0;right=0;collapsible=0;dropTarget=0;fillColor=none;points=[[0,0.5],[1,0.5]];portConstraint=eastwest;fontSize=16;" parent="WMMUxBecpCihCAzd6EAW-29" vertex="1">
          <mxGeometry width="90" height="37" as="geometry" />
        </mxCell>
        <mxCell id="WMMUxBecpCihCAzd6EAW-31" value="Key" style="shape=partialRectangle;html=1;whiteSpace=wrap;connectable=0;strokeColor=inherit;overflow=hidden;fillColor=#66CC00;top=0;left=0;bottom=0;right=0;pointerEvents=1;fontSize=16;" parent="WMMUxBecpCihCAzd6EAW-30" vertex="1">
          <mxGeometry width="45" height="37" as="geometry">
            <mxRectangle width="45" height="37" as="alternateBounds" />
          </mxGeometry>
        </mxCell>
        <mxCell id="WMMUxBecpCihCAzd6EAW-32" value="Value" style="shape=partialRectangle;html=1;whiteSpace=wrap;connectable=0;strokeColor=inherit;overflow=hidden;fillColor=#66CC00;top=0;left=0;bottom=0;right=0;pointerEvents=1;fontSize=16;" parent="WMMUxBecpCihCAzd6EAW-30" vertex="1">
          <mxGeometry x="45" width="45" height="37" as="geometry">
            <mxRectangle width="45" height="37" as="alternateBounds" />
          </mxGeometry>
        </mxCell>
        <mxCell id="WMMUxBecpCihCAzd6EAW-34" value="" style="shape=tableRow;horizontal=0;startSize=0;swimlaneHead=0;swimlaneBody=0;strokeColor=inherit;top=0;left=0;bottom=0;right=0;collapsible=0;dropTarget=0;fillColor=none;points=[[0,0.5],[1,0.5]];portConstraint=eastwest;fontSize=16;" parent="WMMUxBecpCihCAzd6EAW-29" vertex="1">
          <mxGeometry y="37" width="90" height="36" as="geometry" />
        </mxCell>
        <mxCell id="WMMUxBecpCihCAzd6EAW-35" value="" style="shape=partialRectangle;html=1;whiteSpace=wrap;connectable=0;strokeColor=inherit;overflow=hidden;fillColor=none;top=0;left=0;bottom=0;right=0;pointerEvents=1;fontSize=16;" parent="WMMUxBecpCihCAzd6EAW-34" vertex="1">
          <mxGeometry width="45" height="36" as="geometry">
            <mxRectangle width="45" height="36" as="alternateBounds" />
          </mxGeometry>
        </mxCell>
        <mxCell id="WMMUxBecpCihCAzd6EAW-36" value="" style="shape=partialRectangle;html=1;whiteSpace=wrap;connectable=0;strokeColor=inherit;overflow=hidden;fillColor=none;top=0;left=0;bottom=0;right=0;pointerEvents=1;fontSize=16;" parent="WMMUxBecpCihCAzd6EAW-34" vertex="1">
          <mxGeometry x="45" width="45" height="36" as="geometry">
            <mxRectangle width="45" height="36" as="alternateBounds" />
          </mxGeometry>
        </mxCell>
        <mxCell id="WMMUxBecpCihCAzd6EAW-38" value="" style="shape=tableRow;horizontal=0;startSize=0;swimlaneHead=0;swimlaneBody=0;strokeColor=inherit;top=0;left=0;bottom=0;right=0;collapsible=0;dropTarget=0;fillColor=none;points=[[0,0.5],[1,0.5]];portConstraint=eastwest;fontSize=16;" parent="WMMUxBecpCihCAzd6EAW-29" vertex="1">
          <mxGeometry y="73" width="90" height="37" as="geometry" />
        </mxCell>
        <mxCell id="WMMUxBecpCihCAzd6EAW-39" value="" style="shape=partialRectangle;html=1;whiteSpace=wrap;connectable=0;strokeColor=inherit;overflow=hidden;fillColor=none;top=0;left=0;bottom=0;right=0;pointerEvents=1;fontSize=16;" parent="WMMUxBecpCihCAzd6EAW-38" vertex="1">
          <mxGeometry width="45" height="37" as="geometry">
            <mxRectangle width="45" height="37" as="alternateBounds" />
          </mxGeometry>
        </mxCell>
        <mxCell id="WMMUxBecpCihCAzd6EAW-40" value="" style="shape=partialRectangle;html=1;whiteSpace=wrap;connectable=0;strokeColor=inherit;overflow=hidden;fillColor=none;top=0;left=0;bottom=0;right=0;pointerEvents=1;fontSize=16;" parent="WMMUxBecpCihCAzd6EAW-38" vertex="1">
          <mxGeometry x="45" width="45" height="37" as="geometry">
            <mxRectangle width="45" height="37" as="alternateBounds" />
          </mxGeometry>
        </mxCell>
        <mxCell id="WMMUxBecpCihCAzd6EAW-42" style="edgeStyle=orthogonalEdgeStyle;rounded=0;orthogonalLoop=1;jettySize=auto;html=1;exitX=1;exitY=0.5;exitDx=0;exitDy=0;" parent="WMMUxBecpCihCAzd6EAW-29" source="WMMUxBecpCihCAzd6EAW-34" target="WMMUxBecpCihCAzd6EAW-34" edge="1">
          <mxGeometry relative="1" as="geometry" />
        </mxCell>
        <mxCell id="WMMUxBecpCihCAzd6EAW-43" value="" style="shape=table;startSize=0;container=1;collapsible=0;childLayout=tableLayout;fontSize=16;movable=1;resizable=1;rotatable=1;deletable=1;editable=1;locked=0;connectable=1;" parent="1" vertex="1">
          <mxGeometry x="740" y="1145" width="90" height="110" as="geometry" />
        </mxCell>
        <mxCell id="WMMUxBecpCihCAzd6EAW-44" value="" style="shape=tableRow;horizontal=0;startSize=0;swimlaneHead=0;swimlaneBody=0;strokeColor=inherit;top=0;left=0;bottom=0;right=0;collapsible=0;dropTarget=0;fillColor=none;points=[[0,0.5],[1,0.5]];portConstraint=eastwest;fontSize=16;" parent="WMMUxBecpCihCAzd6EAW-43" vertex="1">
          <mxGeometry width="90" height="37" as="geometry" />
        </mxCell>
        <mxCell id="WMMUxBecpCihCAzd6EAW-45" value="Key" style="shape=partialRectangle;html=1;whiteSpace=wrap;connectable=0;strokeColor=inherit;overflow=hidden;fillColor=#66CC00;top=0;left=0;bottom=0;right=0;pointerEvents=1;fontSize=16;" parent="WMMUxBecpCihCAzd6EAW-44" vertex="1">
          <mxGeometry width="45" height="37" as="geometry">
            <mxRectangle width="45" height="37" as="alternateBounds" />
          </mxGeometry>
        </mxCell>
        <mxCell id="WMMUxBecpCihCAzd6EAW-46" value="Value" style="shape=partialRectangle;html=1;whiteSpace=wrap;connectable=0;strokeColor=inherit;overflow=hidden;fillColor=#66CC00;top=0;left=0;bottom=0;right=0;pointerEvents=1;fontSize=16;" parent="WMMUxBecpCihCAzd6EAW-44" vertex="1">
          <mxGeometry x="45" width="45" height="37" as="geometry">
            <mxRectangle width="45" height="37" as="alternateBounds" />
          </mxGeometry>
        </mxCell>
        <mxCell id="WMMUxBecpCihCAzd6EAW-47" value="" style="shape=tableRow;horizontal=0;startSize=0;swimlaneHead=0;swimlaneBody=0;strokeColor=inherit;top=0;left=0;bottom=0;right=0;collapsible=0;dropTarget=0;fillColor=none;points=[[0,0.5],[1,0.5]];portConstraint=eastwest;fontSize=16;" parent="WMMUxBecpCihCAzd6EAW-43" vertex="1">
          <mxGeometry y="37" width="90" height="36" as="geometry" />
        </mxCell>
        <mxCell id="WMMUxBecpCihCAzd6EAW-48" value="" style="shape=partialRectangle;html=1;whiteSpace=wrap;connectable=0;strokeColor=inherit;overflow=hidden;fillColor=none;top=0;left=0;bottom=0;right=0;pointerEvents=1;fontSize=16;" parent="WMMUxBecpCihCAzd6EAW-47" vertex="1">
          <mxGeometry width="45" height="36" as="geometry">
            <mxRectangle width="45" height="36" as="alternateBounds" />
          </mxGeometry>
        </mxCell>
        <mxCell id="WMMUxBecpCihCAzd6EAW-49" value="" style="shape=partialRectangle;html=1;whiteSpace=wrap;connectable=0;strokeColor=inherit;overflow=hidden;fillColor=none;top=0;left=0;bottom=0;right=0;pointerEvents=1;fontSize=16;" parent="WMMUxBecpCihCAzd6EAW-47" vertex="1">
          <mxGeometry x="45" width="45" height="36" as="geometry">
            <mxRectangle width="45" height="36" as="alternateBounds" />
          </mxGeometry>
        </mxCell>
        <mxCell id="WMMUxBecpCihCAzd6EAW-50" value="" style="shape=tableRow;horizontal=0;startSize=0;swimlaneHead=0;swimlaneBody=0;strokeColor=inherit;top=0;left=0;bottom=0;right=0;collapsible=0;dropTarget=0;fillColor=none;points=[[0,0.5],[1,0.5]];portConstraint=eastwest;fontSize=16;" parent="WMMUxBecpCihCAzd6EAW-43" vertex="1">
          <mxGeometry y="73" width="90" height="37" as="geometry" />
        </mxCell>
        <mxCell id="WMMUxBecpCihCAzd6EAW-51" value="" style="shape=partialRectangle;html=1;whiteSpace=wrap;connectable=0;strokeColor=inherit;overflow=hidden;fillColor=none;top=0;left=0;bottom=0;right=0;pointerEvents=1;fontSize=16;" parent="WMMUxBecpCihCAzd6EAW-50" vertex="1">
          <mxGeometry width="45" height="37" as="geometry">
            <mxRectangle width="45" height="37" as="alternateBounds" />
          </mxGeometry>
        </mxCell>
        <mxCell id="WMMUxBecpCihCAzd6EAW-52" value="" style="shape=partialRectangle;html=1;whiteSpace=wrap;connectable=0;strokeColor=inherit;overflow=hidden;fillColor=none;top=0;left=0;bottom=0;right=0;pointerEvents=1;fontSize=16;" parent="WMMUxBecpCihCAzd6EAW-50" vertex="1">
          <mxGeometry x="45" width="45" height="37" as="geometry">
            <mxRectangle width="45" height="37" as="alternateBounds" />
          </mxGeometry>
        </mxCell>
        <mxCell id="WMMUxBecpCihCAzd6EAW-53" style="edgeStyle=orthogonalEdgeStyle;rounded=0;orthogonalLoop=1;jettySize=auto;html=1;exitX=1;exitY=0.5;exitDx=0;exitDy=0;" parent="WMMUxBecpCihCAzd6EAW-43" source="WMMUxBecpCihCAzd6EAW-47" target="WMMUxBecpCihCAzd6EAW-47" edge="1">
          <mxGeometry relative="1" as="geometry" />
        </mxCell>
        <mxCell id="WMMUxBecpCihCAzd6EAW-54" value="" style="shape=table;startSize=0;container=1;collapsible=0;childLayout=tableLayout;fontSize=16;movable=1;resizable=1;rotatable=1;deletable=1;editable=1;locked=0;connectable=1;" parent="1" vertex="1">
          <mxGeometry x="1200" y="935" width="90" height="110" as="geometry" />
        </mxCell>
        <mxCell id="WMMUxBecpCihCAzd6EAW-55" value="" style="shape=tableRow;horizontal=0;startSize=0;swimlaneHead=0;swimlaneBody=0;strokeColor=inherit;top=0;left=0;bottom=0;right=0;collapsible=0;dropTarget=0;fillColor=none;points=[[0,0.5],[1,0.5]];portConstraint=eastwest;fontSize=16;" parent="WMMUxBecpCihCAzd6EAW-54" vertex="1">
          <mxGeometry width="90" height="37" as="geometry" />
        </mxCell>
        <mxCell id="WMMUxBecpCihCAzd6EAW-56" value="Key" style="shape=partialRectangle;html=1;whiteSpace=wrap;connectable=0;strokeColor=inherit;overflow=hidden;fillColor=#66CC00;top=0;left=0;bottom=0;right=0;pointerEvents=1;fontSize=16;" parent="WMMUxBecpCihCAzd6EAW-55" vertex="1">
          <mxGeometry width="45" height="37" as="geometry">
            <mxRectangle width="45" height="37" as="alternateBounds" />
          </mxGeometry>
        </mxCell>
        <mxCell id="WMMUxBecpCihCAzd6EAW-57" value="Value" style="shape=partialRectangle;html=1;whiteSpace=wrap;connectable=0;strokeColor=inherit;overflow=hidden;fillColor=#66CC00;top=0;left=0;bottom=0;right=0;pointerEvents=1;fontSize=16;" parent="WMMUxBecpCihCAzd6EAW-55" vertex="1">
          <mxGeometry x="45" width="45" height="37" as="geometry">
            <mxRectangle width="45" height="37" as="alternateBounds" />
          </mxGeometry>
        </mxCell>
        <mxCell id="WMMUxBecpCihCAzd6EAW-58" value="" style="shape=tableRow;horizontal=0;startSize=0;swimlaneHead=0;swimlaneBody=0;strokeColor=inherit;top=0;left=0;bottom=0;right=0;collapsible=0;dropTarget=0;fillColor=none;points=[[0,0.5],[1,0.5]];portConstraint=eastwest;fontSize=16;" parent="WMMUxBecpCihCAzd6EAW-54" vertex="1">
          <mxGeometry y="37" width="90" height="36" as="geometry" />
        </mxCell>
        <mxCell id="WMMUxBecpCihCAzd6EAW-59" value="" style="shape=partialRectangle;html=1;whiteSpace=wrap;connectable=0;strokeColor=inherit;overflow=hidden;fillColor=none;top=0;left=0;bottom=0;right=0;pointerEvents=1;fontSize=16;" parent="WMMUxBecpCihCAzd6EAW-58" vertex="1">
          <mxGeometry width="45" height="36" as="geometry">
            <mxRectangle width="45" height="36" as="alternateBounds" />
          </mxGeometry>
        </mxCell>
        <mxCell id="WMMUxBecpCihCAzd6EAW-60" value="" style="shape=partialRectangle;html=1;whiteSpace=wrap;connectable=0;strokeColor=inherit;overflow=hidden;fillColor=none;top=0;left=0;bottom=0;right=0;pointerEvents=1;fontSize=16;" parent="WMMUxBecpCihCAzd6EAW-58" vertex="1">
          <mxGeometry x="45" width="45" height="36" as="geometry">
            <mxRectangle width="45" height="36" as="alternateBounds" />
          </mxGeometry>
        </mxCell>
        <mxCell id="WMMUxBecpCihCAzd6EAW-61" value="" style="shape=tableRow;horizontal=0;startSize=0;swimlaneHead=0;swimlaneBody=0;strokeColor=inherit;top=0;left=0;bottom=0;right=0;collapsible=0;dropTarget=0;fillColor=none;points=[[0,0.5],[1,0.5]];portConstraint=eastwest;fontSize=16;" parent="WMMUxBecpCihCAzd6EAW-54" vertex="1">
          <mxGeometry y="73" width="90" height="37" as="geometry" />
        </mxCell>
        <mxCell id="WMMUxBecpCihCAzd6EAW-62" value="" style="shape=partialRectangle;html=1;whiteSpace=wrap;connectable=0;strokeColor=inherit;overflow=hidden;fillColor=none;top=0;left=0;bottom=0;right=0;pointerEvents=1;fontSize=16;" parent="WMMUxBecpCihCAzd6EAW-61" vertex="1">
          <mxGeometry width="45" height="37" as="geometry">
            <mxRectangle width="45" height="37" as="alternateBounds" />
          </mxGeometry>
        </mxCell>
        <mxCell id="WMMUxBecpCihCAzd6EAW-63" value="" style="shape=partialRectangle;html=1;whiteSpace=wrap;connectable=0;strokeColor=inherit;overflow=hidden;fillColor=none;top=0;left=0;bottom=0;right=0;pointerEvents=1;fontSize=16;" parent="WMMUxBecpCihCAzd6EAW-61" vertex="1">
          <mxGeometry x="45" width="45" height="37" as="geometry">
            <mxRectangle width="45" height="37" as="alternateBounds" />
          </mxGeometry>
        </mxCell>
        <mxCell id="WMMUxBecpCihCAzd6EAW-64" style="edgeStyle=orthogonalEdgeStyle;rounded=0;orthogonalLoop=1;jettySize=auto;html=1;exitX=1;exitY=0.5;exitDx=0;exitDy=0;" parent="WMMUxBecpCihCAzd6EAW-54" source="WMMUxBecpCihCAzd6EAW-58" target="WMMUxBecpCihCAzd6EAW-58" edge="1">
          <mxGeometry relative="1" as="geometry" />
        </mxCell>
        <mxCell id="WMMUxBecpCihCAzd6EAW-65" value="" style="shape=table;startSize=0;container=1;collapsible=0;childLayout=tableLayout;fontSize=16;movable=1;resizable=1;rotatable=1;deletable=1;editable=1;locked=0;connectable=1;" parent="1" vertex="1">
          <mxGeometry x="920" y="600" width="90" height="110" as="geometry" />
        </mxCell>
        <mxCell id="WMMUxBecpCihCAzd6EAW-66" value="" style="shape=tableRow;horizontal=0;startSize=0;swimlaneHead=0;swimlaneBody=0;strokeColor=inherit;top=0;left=0;bottom=0;right=0;collapsible=0;dropTarget=0;fillColor=none;points=[[0,0.5],[1,0.5]];portConstraint=eastwest;fontSize=16;" parent="WMMUxBecpCihCAzd6EAW-65" vertex="1">
          <mxGeometry width="90" height="37" as="geometry" />
        </mxCell>
        <mxCell id="WMMUxBecpCihCAzd6EAW-67" value="Key" style="shape=partialRectangle;html=1;whiteSpace=wrap;connectable=0;strokeColor=inherit;overflow=hidden;fillColor=#66CC00;top=0;left=0;bottom=0;right=0;pointerEvents=1;fontSize=16;" parent="WMMUxBecpCihCAzd6EAW-66" vertex="1">
          <mxGeometry width="45" height="37" as="geometry">
            <mxRectangle width="45" height="37" as="alternateBounds" />
          </mxGeometry>
        </mxCell>
        <mxCell id="WMMUxBecpCihCAzd6EAW-68" value="Value" style="shape=partialRectangle;html=1;whiteSpace=wrap;connectable=0;strokeColor=inherit;overflow=hidden;fillColor=#66CC00;top=0;left=0;bottom=0;right=0;pointerEvents=1;fontSize=16;" parent="WMMUxBecpCihCAzd6EAW-66" vertex="1">
          <mxGeometry x="45" width="45" height="37" as="geometry">
            <mxRectangle width="45" height="37" as="alternateBounds" />
          </mxGeometry>
        </mxCell>
        <mxCell id="WMMUxBecpCihCAzd6EAW-69" value="" style="shape=tableRow;horizontal=0;startSize=0;swimlaneHead=0;swimlaneBody=0;strokeColor=inherit;top=0;left=0;bottom=0;right=0;collapsible=0;dropTarget=0;fillColor=none;points=[[0,0.5],[1,0.5]];portConstraint=eastwest;fontSize=16;" parent="WMMUxBecpCihCAzd6EAW-65" vertex="1">
          <mxGeometry y="37" width="90" height="36" as="geometry" />
        </mxCell>
        <mxCell id="WMMUxBecpCihCAzd6EAW-70" value="" style="shape=partialRectangle;html=1;whiteSpace=wrap;connectable=0;strokeColor=inherit;overflow=hidden;fillColor=none;top=0;left=0;bottom=0;right=0;pointerEvents=1;fontSize=16;" parent="WMMUxBecpCihCAzd6EAW-69" vertex="1">
          <mxGeometry width="45" height="36" as="geometry">
            <mxRectangle width="45" height="36" as="alternateBounds" />
          </mxGeometry>
        </mxCell>
        <mxCell id="WMMUxBecpCihCAzd6EAW-71" value="" style="shape=partialRectangle;html=1;whiteSpace=wrap;connectable=0;strokeColor=inherit;overflow=hidden;fillColor=none;top=0;left=0;bottom=0;right=0;pointerEvents=1;fontSize=16;" parent="WMMUxBecpCihCAzd6EAW-69" vertex="1">
          <mxGeometry x="45" width="45" height="36" as="geometry">
            <mxRectangle width="45" height="36" as="alternateBounds" />
          </mxGeometry>
        </mxCell>
        <mxCell id="WMMUxBecpCihCAzd6EAW-72" value="" style="shape=tableRow;horizontal=0;startSize=0;swimlaneHead=0;swimlaneBody=0;strokeColor=inherit;top=0;left=0;bottom=0;right=0;collapsible=0;dropTarget=0;fillColor=none;points=[[0,0.5],[1,0.5]];portConstraint=eastwest;fontSize=16;" parent="WMMUxBecpCihCAzd6EAW-65" vertex="1">
          <mxGeometry y="73" width="90" height="37" as="geometry" />
        </mxCell>
        <mxCell id="WMMUxBecpCihCAzd6EAW-73" value="" style="shape=partialRectangle;html=1;whiteSpace=wrap;connectable=0;strokeColor=inherit;overflow=hidden;fillColor=none;top=0;left=0;bottom=0;right=0;pointerEvents=1;fontSize=16;" parent="WMMUxBecpCihCAzd6EAW-72" vertex="1">
          <mxGeometry width="45" height="37" as="geometry">
            <mxRectangle width="45" height="37" as="alternateBounds" />
          </mxGeometry>
        </mxCell>
        <mxCell id="WMMUxBecpCihCAzd6EAW-74" value="" style="shape=partialRectangle;html=1;whiteSpace=wrap;connectable=0;strokeColor=inherit;overflow=hidden;fillColor=none;top=0;left=0;bottom=0;right=0;pointerEvents=1;fontSize=16;" parent="WMMUxBecpCihCAzd6EAW-72" vertex="1">
          <mxGeometry x="45" width="45" height="37" as="geometry">
            <mxRectangle width="45" height="37" as="alternateBounds" />
          </mxGeometry>
        </mxCell>
        <mxCell id="WMMUxBecpCihCAzd6EAW-75" style="edgeStyle=orthogonalEdgeStyle;rounded=0;orthogonalLoop=1;jettySize=auto;html=1;exitX=1;exitY=0.5;exitDx=0;exitDy=0;" parent="WMMUxBecpCihCAzd6EAW-65" source="WMMUxBecpCihCAzd6EAW-69" target="WMMUxBecpCihCAzd6EAW-69" edge="1">
          <mxGeometry relative="1" as="geometry" />
        </mxCell>
        <mxCell id="WMMUxBecpCihCAzd6EAW-76" value="" style="shape=table;startSize=0;container=1;collapsible=0;childLayout=tableLayout;fontSize=16;movable=1;resizable=1;rotatable=1;deletable=1;editable=1;locked=0;connectable=1;" parent="1" vertex="1">
          <mxGeometry x="540" y="600" width="90" height="110" as="geometry" />
        </mxCell>
        <mxCell id="WMMUxBecpCihCAzd6EAW-77" value="" style="shape=tableRow;horizontal=0;startSize=0;swimlaneHead=0;swimlaneBody=0;strokeColor=inherit;top=0;left=0;bottom=0;right=0;collapsible=0;dropTarget=0;fillColor=none;points=[[0,0.5],[1,0.5]];portConstraint=eastwest;fontSize=16;" parent="WMMUxBecpCihCAzd6EAW-76" vertex="1">
          <mxGeometry width="90" height="37" as="geometry" />
        </mxCell>
        <mxCell id="WMMUxBecpCihCAzd6EAW-78" value="Key" style="shape=partialRectangle;html=1;whiteSpace=wrap;connectable=0;strokeColor=inherit;overflow=hidden;fillColor=#66CC00;top=0;left=0;bottom=0;right=0;pointerEvents=1;fontSize=16;" parent="WMMUxBecpCihCAzd6EAW-77" vertex="1">
          <mxGeometry width="45" height="37" as="geometry">
            <mxRectangle width="45" height="37" as="alternateBounds" />
          </mxGeometry>
        </mxCell>
        <mxCell id="WMMUxBecpCihCAzd6EAW-79" value="Value" style="shape=partialRectangle;html=1;whiteSpace=wrap;connectable=0;strokeColor=inherit;overflow=hidden;fillColor=#66CC00;top=0;left=0;bottom=0;right=0;pointerEvents=1;fontSize=16;" parent="WMMUxBecpCihCAzd6EAW-77" vertex="1">
          <mxGeometry x="45" width="45" height="37" as="geometry">
            <mxRectangle width="45" height="37" as="alternateBounds" />
          </mxGeometry>
        </mxCell>
        <mxCell id="WMMUxBecpCihCAzd6EAW-80" value="" style="shape=tableRow;horizontal=0;startSize=0;swimlaneHead=0;swimlaneBody=0;strokeColor=inherit;top=0;left=0;bottom=0;right=0;collapsible=0;dropTarget=0;fillColor=none;points=[[0,0.5],[1,0.5]];portConstraint=eastwest;fontSize=16;" parent="WMMUxBecpCihCAzd6EAW-76" vertex="1">
          <mxGeometry y="37" width="90" height="36" as="geometry" />
        </mxCell>
        <mxCell id="WMMUxBecpCihCAzd6EAW-81" value="" style="shape=partialRectangle;html=1;whiteSpace=wrap;connectable=0;strokeColor=inherit;overflow=hidden;fillColor=none;top=0;left=0;bottom=0;right=0;pointerEvents=1;fontSize=16;" parent="WMMUxBecpCihCAzd6EAW-80" vertex="1">
          <mxGeometry width="45" height="36" as="geometry">
            <mxRectangle width="45" height="36" as="alternateBounds" />
          </mxGeometry>
        </mxCell>
        <mxCell id="WMMUxBecpCihCAzd6EAW-82" value="" style="shape=partialRectangle;html=1;whiteSpace=wrap;connectable=0;strokeColor=inherit;overflow=hidden;fillColor=none;top=0;left=0;bottom=0;right=0;pointerEvents=1;fontSize=16;" parent="WMMUxBecpCihCAzd6EAW-80" vertex="1">
          <mxGeometry x="45" width="45" height="36" as="geometry">
            <mxRectangle width="45" height="36" as="alternateBounds" />
          </mxGeometry>
        </mxCell>
        <mxCell id="WMMUxBecpCihCAzd6EAW-83" value="" style="shape=tableRow;horizontal=0;startSize=0;swimlaneHead=0;swimlaneBody=0;strokeColor=inherit;top=0;left=0;bottom=0;right=0;collapsible=0;dropTarget=0;fillColor=none;points=[[0,0.5],[1,0.5]];portConstraint=eastwest;fontSize=16;" parent="WMMUxBecpCihCAzd6EAW-76" vertex="1">
          <mxGeometry y="73" width="90" height="37" as="geometry" />
        </mxCell>
        <mxCell id="WMMUxBecpCihCAzd6EAW-84" value="" style="shape=partialRectangle;html=1;whiteSpace=wrap;connectable=0;strokeColor=inherit;overflow=hidden;fillColor=none;top=0;left=0;bottom=0;right=0;pointerEvents=1;fontSize=16;" parent="WMMUxBecpCihCAzd6EAW-83" vertex="1">
          <mxGeometry width="45" height="37" as="geometry">
            <mxRectangle width="45" height="37" as="alternateBounds" />
          </mxGeometry>
        </mxCell>
        <mxCell id="WMMUxBecpCihCAzd6EAW-85" value="" style="shape=partialRectangle;html=1;whiteSpace=wrap;connectable=0;strokeColor=inherit;overflow=hidden;fillColor=none;top=0;left=0;bottom=0;right=0;pointerEvents=1;fontSize=16;" parent="WMMUxBecpCihCAzd6EAW-83" vertex="1">
          <mxGeometry x="45" width="45" height="37" as="geometry">
            <mxRectangle width="45" height="37" as="alternateBounds" />
          </mxGeometry>
        </mxCell>
        <mxCell id="WMMUxBecpCihCAzd6EAW-86" style="edgeStyle=orthogonalEdgeStyle;rounded=0;orthogonalLoop=1;jettySize=auto;html=1;exitX=1;exitY=0.5;exitDx=0;exitDy=0;" parent="WMMUxBecpCihCAzd6EAW-76" source="WMMUxBecpCihCAzd6EAW-80" target="WMMUxBecpCihCAzd6EAW-80" edge="1">
          <mxGeometry relative="1" as="geometry" />
        </mxCell>
        <mxCell id="WMMUxBecpCihCAzd6EAW-87" value="&lt;font style=&quot;font-size: 18px;&quot;&gt;&lt;b&gt;Raft&lt;/b&gt;&lt;/font&gt;" style="ellipse;shape=doubleEllipse;whiteSpace=wrap;html=1;aspect=fixed;fillColor=light-dark(#990099,var(--ge-dark-color, #121212));" parent="1" vertex="1">
          <mxGeometry x="660" y="630" width="80" height="80" as="geometry" />
        </mxCell>
        <mxCell id="WMMUxBecpCihCAzd6EAW-88" value="&lt;font style=&quot;font-size: 18px;&quot;&gt;&lt;b&gt;Raft&lt;/b&gt;&lt;/font&gt;" style="ellipse;shape=doubleEllipse;whiteSpace=wrap;html=1;aspect=fixed;fillColor=light-dark(#990099,var(--ge-dark-color, #121212));" parent="1" vertex="1">
          <mxGeometry x="1040" y="630" width="80" height="80" as="geometry" />
        </mxCell>
        <mxCell id="WMMUxBecpCihCAzd6EAW-89" value="&lt;font style=&quot;font-size: 18px;&quot;&gt;&lt;b&gt;Raft&lt;/b&gt;&lt;/font&gt;" style="ellipse;shape=doubleEllipse;whiteSpace=wrap;html=1;aspect=fixed;fillColor=light-dark(#990099,var(--ge-dark-color, #121212));" parent="1" vertex="1">
          <mxGeometry x="865" y="1175" width="80" height="80" as="geometry" />
        </mxCell>
        <mxCell id="WMMUxBecpCihCAzd6EAW-90" value="&lt;font style=&quot;font-size: 18px;&quot;&gt;&lt;b&gt;Raft&lt;/b&gt;&lt;/font&gt;" style="ellipse;shape=doubleEllipse;whiteSpace=wrap;html=1;aspect=fixed;fillColor=light-dark(#990099,var(--ge-dark-color, #121212));" parent="1" vertex="1">
          <mxGeometry x="1325" y="965" width="80" height="80" as="geometry" />
        </mxCell>
        <mxCell id="WMMUxBecpCihCAzd6EAW-91" value="&lt;font style=&quot;font-size: 18px;&quot;&gt;&lt;b&gt;Raft&lt;/b&gt;&lt;/font&gt;" style="ellipse;shape=doubleEllipse;whiteSpace=wrap;html=1;aspect=fixed;fillColor=light-dark(#990099,var(--ge-dark-color, #121212));" parent="1" vertex="1">
          <mxGeometry x="400" y="945" width="80" height="80" as="geometry" />
        </mxCell>
        <mxCell id="WMMUxBecpCihCAzd6EAW-92" value="&lt;div&gt;Master&lt;/div&gt;" style="ellipse;whiteSpace=wrap;html=1;rounded=0;shadow=1;comic=0;labelBackgroundColor=none;strokeWidth=1;fontFamily=Verdana;fontSize=12;align=center;fillColor=light-dark(#FFF45B,var(--ge-dark-color, #121212));" parent="1" vertex="1">
          <mxGeometry x="642.5" y="-250" width="130" height="80" as="geometry" />
        </mxCell>
        <mxCell id="WMMUxBecpCihCAzd6EAW-93" value="&lt;div&gt;Worker&lt;/div&gt;" style="ellipse;whiteSpace=wrap;html=1;rounded=0;shadow=1;comic=0;labelBackgroundColor=none;strokeWidth=1;fontFamily=Verdana;fontSize=12;align=center;fillColor=light-dark(#97D077,var(--ge-dark-color, #121212));" parent="1" vertex="1">
          <mxGeometry x="400" y="240" width="130" height="80" as="geometry" />
        </mxCell>
        <mxCell id="WMMUxBecpCihCAzd6EAW-94" value="&lt;div&gt;Worker&lt;/div&gt;" style="ellipse;whiteSpace=wrap;html=1;rounded=0;shadow=1;comic=0;labelBackgroundColor=none;strokeWidth=1;fontFamily=Verdana;fontSize=12;align=center;fillColor=light-dark(#97D077,var(--ge-dark-color, #121212));" parent="1" vertex="1">
          <mxGeometry x="400" y="140" width="130" height="80" as="geometry" />
        </mxCell>
        <mxCell id="WMMUxBecpCihCAzd6EAW-95" value="&lt;div&gt;Worker&lt;/div&gt;" style="ellipse;whiteSpace=wrap;html=1;rounded=0;shadow=1;comic=0;labelBackgroundColor=none;strokeWidth=1;fontFamily=Verdana;fontSize=12;align=center;fillColor=light-dark(#97D077,var(--ge-dark-color, #121212));" parent="1" vertex="1">
          <mxGeometry x="400" y="-160" width="130" height="80" as="geometry" />
        </mxCell>
        <mxCell id="WMMUxBecpCihCAzd6EAW-96" value="&lt;div&gt;Worker&lt;/div&gt;" style="ellipse;whiteSpace=wrap;html=1;rounded=0;shadow=1;comic=0;labelBackgroundColor=none;strokeWidth=1;fontFamily=Verdana;fontSize=12;align=center;fillColor=light-dark(#97D077,var(--ge-dark-color, #121212));" parent="1" vertex="1">
          <mxGeometry x="400" y="-60" width="130" height="80" as="geometry" />
        </mxCell>
        <mxCell id="WMMUxBecpCihCAzd6EAW-97" value="&lt;div&gt;Worker&lt;/div&gt;" style="ellipse;whiteSpace=wrap;html=1;rounded=0;shadow=1;comic=0;labelBackgroundColor=none;strokeWidth=1;fontFamily=Verdana;fontSize=12;align=center;fillColor=light-dark(#97D077,var(--ge-dark-color, #121212));" parent="1" vertex="1">
          <mxGeometry x="400" y="40" width="130" height="80" as="geometry" />
        </mxCell>
        <mxCell id="WMMUxBecpCihCAzd6EAW-98" value="File" style="rounded=1;whiteSpace=wrap;html=1;fillColor=light-dark(#CC6600,var(--ge-dark-color, #121212));" parent="1" vertex="1">
          <mxGeometry x="200" y="-150" width="120" height="60" as="geometry" />
        </mxCell>
        <mxCell id="WMMUxBecpCihCAzd6EAW-99" value="File" style="rounded=1;whiteSpace=wrap;html=1;fillColor=light-dark(#CC6600,var(--ge-dark-color, #121212));" parent="1" vertex="1">
          <mxGeometry x="200" y="-50" width="120" height="60" as="geometry" />
        </mxCell>
        <mxCell id="WMMUxBecpCihCAzd6EAW-100" value="File" style="rounded=1;whiteSpace=wrap;html=1;fillColor=light-dark(#CC6600,var(--ge-dark-color, #121212));" parent="1" vertex="1">
          <mxGeometry x="200" y="50" width="120" height="60" as="geometry" />
        </mxCell>
        <mxCell id="WMMUxBecpCihCAzd6EAW-101" value="File" style="rounded=1;whiteSpace=wrap;html=1;fillColor=light-dark(#CC6600,var(--ge-dark-color, #121212));" parent="1" vertex="1">
          <mxGeometry x="200" y="150" width="120" height="60" as="geometry" />
        </mxCell>
        <mxCell id="WMMUxBecpCihCAzd6EAW-102" value="File" style="rounded=1;whiteSpace=wrap;html=1;fillColor=light-dark(#CC6600,var(--ge-dark-color, #121212));" parent="1" vertex="1">
          <mxGeometry x="200" y="250" width="120" height="60" as="geometry" />
        </mxCell>
        <mxCell id="WMMUxBecpCihCAzd6EAW-103" value="" style="endArrow=classic;html=1;rounded=0;exitX=0;exitY=1;exitDx=0;exitDy=0;" parent="1" source="WMMUxBecpCihCAzd6EAW-92" target="WMMUxBecpCihCAzd6EAW-95" edge="1">
          <mxGeometry width="50" height="50" relative="1" as="geometry">
            <mxPoint x="620" y="50" as="sourcePoint" />
            <mxPoint x="670" as="targetPoint" />
          </mxGeometry>
        </mxCell>
        <mxCell id="WMMUxBecpCihCAzd6EAW-108" value="Assign" style="edgeLabel;html=1;align=center;verticalAlign=middle;resizable=0;points=[];" parent="WMMUxBecpCihCAzd6EAW-103" vertex="1" connectable="0">
          <mxGeometry x="-0.1224" y="-1" relative="1" as="geometry">
            <mxPoint as="offset" />
          </mxGeometry>
        </mxCell>
        <mxCell id="WMMUxBecpCihCAzd6EAW-104" value="" style="endArrow=classic;html=1;rounded=0;exitX=0;exitY=1;exitDx=0;exitDy=0;entryX=1;entryY=0;entryDx=0;entryDy=0;" parent="1" source="WMMUxBecpCihCAzd6EAW-92" target="WMMUxBecpCihCAzd6EAW-96" edge="1">
          <mxGeometry width="50" height="50" relative="1" as="geometry">
            <mxPoint x="765" y="-130" as="sourcePoint" />
            <mxPoint x="621" y="-37" as="targetPoint" />
          </mxGeometry>
        </mxCell>
        <mxCell id="WMMUxBecpCihCAzd6EAW-109" value="Assign" style="edgeLabel;html=1;align=center;verticalAlign=middle;resizable=0;points=[];" parent="WMMUxBecpCihCAzd6EAW-104" vertex="1" connectable="0">
          <mxGeometry x="-0.205" y="-3" relative="1" as="geometry">
            <mxPoint y="1" as="offset" />
          </mxGeometry>
        </mxCell>
        <mxCell id="WMMUxBecpCihCAzd6EAW-105" value="" style="endArrow=classic;html=1;rounded=0;exitX=0;exitY=1;exitDx=0;exitDy=0;entryX=1;entryY=0;entryDx=0;entryDy=0;" parent="1" source="WMMUxBecpCihCAzd6EAW-92" target="WMMUxBecpCihCAzd6EAW-97" edge="1">
          <mxGeometry width="50" height="50" relative="1" as="geometry">
            <mxPoint x="674" y="-222" as="sourcePoint" />
            <mxPoint x="530" y="-129" as="targetPoint" />
          </mxGeometry>
        </mxCell>
        <mxCell id="WMMUxBecpCihCAzd6EAW-110" value="Assign" style="edgeLabel;html=1;align=center;verticalAlign=middle;resizable=0;points=[];" parent="WMMUxBecpCihCAzd6EAW-105" vertex="1" connectable="0">
          <mxGeometry x="0.1193" y="1" relative="1" as="geometry">
            <mxPoint as="offset" />
          </mxGeometry>
        </mxCell>
        <mxCell id="WMMUxBecpCihCAzd6EAW-106" value="" style="endArrow=classic;html=1;rounded=0;exitX=0;exitY=1;exitDx=0;exitDy=0;entryX=1;entryY=0;entryDx=0;entryDy=0;" parent="1" source="WMMUxBecpCihCAzd6EAW-92" target="WMMUxBecpCihCAzd6EAW-94" edge="1">
          <mxGeometry width="50" height="50" relative="1" as="geometry">
            <mxPoint x="664" y="-232" as="sourcePoint" />
            <mxPoint x="521" y="62" as="targetPoint" />
          </mxGeometry>
        </mxCell>
        <mxCell id="WMMUxBecpCihCAzd6EAW-111" value="Assign" style="edgeLabel;html=1;align=center;verticalAlign=middle;resizable=0;points=[];" parent="WMMUxBecpCihCAzd6EAW-106" vertex="1" connectable="0">
          <mxGeometry x="0.0708" relative="1" as="geometry">
            <mxPoint y="1" as="offset" />
          </mxGeometry>
        </mxCell>
        <mxCell id="WMMUxBecpCihCAzd6EAW-107" value="" style="endArrow=classic;html=1;rounded=0;exitX=0;exitY=1;exitDx=0;exitDy=0;entryX=1;entryY=0;entryDx=0;entryDy=0;" parent="1" source="WMMUxBecpCihCAzd6EAW-92" target="WMMUxBecpCihCAzd6EAW-93" edge="1">
          <mxGeometry width="50" height="50" relative="1" as="geometry">
            <mxPoint x="674" y="-222" as="sourcePoint" />
            <mxPoint x="531" y="72" as="targetPoint" />
          </mxGeometry>
        </mxCell>
        <mxCell id="WMMUxBecpCihCAzd6EAW-112" value="Assign" style="edgeLabel;html=1;align=center;verticalAlign=middle;resizable=0;points=[];" parent="WMMUxBecpCihCAzd6EAW-107" vertex="1" connectable="0">
          <mxGeometry x="-0.0056" y="-2" relative="1" as="geometry">
            <mxPoint as="offset" />
          </mxGeometry>
        </mxCell>
        <mxCell id="WMMUxBecpCihCAzd6EAW-124" value="" style="shape=table;startSize=0;container=1;collapsible=0;childLayout=tableLayout;fontSize=16;movable=1;resizable=1;rotatable=1;deletable=1;editable=1;locked=0;connectable=1;" parent="1" vertex="1">
          <mxGeometry x="680" y="-50" width="55" height="60" as="geometry" />
        </mxCell>
        <mxCell id="WMMUxBecpCihCAzd6EAW-125" value="" style="shape=tableRow;horizontal=0;startSize=0;swimlaneHead=0;swimlaneBody=0;strokeColor=inherit;top=0;left=0;bottom=0;right=0;collapsible=0;dropTarget=0;fillColor=none;points=[[0,0.5],[1,0.5]];portConstraint=eastwest;fontSize=16;" parent="WMMUxBecpCihCAzd6EAW-124" vertex="1">
          <mxGeometry width="55" height="20" as="geometry" />
        </mxCell>
        <mxCell id="WMMUxBecpCihCAzd6EAW-126" value="Key" style="shape=partialRectangle;html=1;whiteSpace=wrap;connectable=0;strokeColor=inherit;overflow=hidden;fillColor=#66CC00;top=0;left=0;bottom=0;right=0;pointerEvents=1;fontSize=16;" parent="WMMUxBecpCihCAzd6EAW-125" vertex="1">
          <mxGeometry width="28" height="20" as="geometry">
            <mxRectangle width="28" height="20" as="alternateBounds" />
          </mxGeometry>
        </mxCell>
        <mxCell id="WMMUxBecpCihCAzd6EAW-127" value="Value" style="shape=partialRectangle;html=1;whiteSpace=wrap;connectable=0;strokeColor=inherit;overflow=hidden;fillColor=#66CC00;top=0;left=0;bottom=0;right=0;pointerEvents=1;fontSize=16;" parent="WMMUxBecpCihCAzd6EAW-125" vertex="1">
          <mxGeometry x="28" width="27" height="20" as="geometry">
            <mxRectangle width="27" height="20" as="alternateBounds" />
          </mxGeometry>
        </mxCell>
        <mxCell id="WMMUxBecpCihCAzd6EAW-128" value="" style="shape=tableRow;horizontal=0;startSize=0;swimlaneHead=0;swimlaneBody=0;strokeColor=inherit;top=0;left=0;bottom=0;right=0;collapsible=0;dropTarget=0;fillColor=none;points=[[0,0.5],[1,0.5]];portConstraint=eastwest;fontSize=16;" parent="WMMUxBecpCihCAzd6EAW-124" vertex="1">
          <mxGeometry y="20" width="55" height="20" as="geometry" />
        </mxCell>
        <mxCell id="WMMUxBecpCihCAzd6EAW-129" value="" style="shape=partialRectangle;html=1;whiteSpace=wrap;connectable=0;strokeColor=inherit;overflow=hidden;fillColor=none;top=0;left=0;bottom=0;right=0;pointerEvents=1;fontSize=16;" parent="WMMUxBecpCihCAzd6EAW-128" vertex="1">
          <mxGeometry width="28" height="20" as="geometry">
            <mxRectangle width="28" height="20" as="alternateBounds" />
          </mxGeometry>
        </mxCell>
        <mxCell id="WMMUxBecpCihCAzd6EAW-130" value="" style="shape=partialRectangle;html=1;whiteSpace=wrap;connectable=0;strokeColor=inherit;overflow=hidden;fillColor=none;top=0;left=0;bottom=0;right=0;pointerEvents=1;fontSize=16;" parent="WMMUxBecpCihCAzd6EAW-128" vertex="1">
          <mxGeometry x="28" width="27" height="20" as="geometry">
            <mxRectangle width="27" height="20" as="alternateBounds" />
          </mxGeometry>
        </mxCell>
        <mxCell id="WMMUxBecpCihCAzd6EAW-131" value="" style="shape=tableRow;horizontal=0;startSize=0;swimlaneHead=0;swimlaneBody=0;strokeColor=inherit;top=0;left=0;bottom=0;right=0;collapsible=0;dropTarget=0;fillColor=none;points=[[0,0.5],[1,0.5]];portConstraint=eastwest;fontSize=16;" parent="WMMUxBecpCihCAzd6EAW-124" vertex="1">
          <mxGeometry y="40" width="55" height="20" as="geometry" />
        </mxCell>
        <mxCell id="WMMUxBecpCihCAzd6EAW-132" value="" style="shape=partialRectangle;html=1;whiteSpace=wrap;connectable=0;strokeColor=inherit;overflow=hidden;fillColor=none;top=0;left=0;bottom=0;right=0;pointerEvents=1;fontSize=16;" parent="WMMUxBecpCihCAzd6EAW-131" vertex="1">
          <mxGeometry width="28" height="20" as="geometry">
            <mxRectangle width="28" height="20" as="alternateBounds" />
          </mxGeometry>
        </mxCell>
        <mxCell id="WMMUxBecpCihCAzd6EAW-133" value="" style="shape=partialRectangle;html=1;whiteSpace=wrap;connectable=0;strokeColor=inherit;overflow=hidden;fillColor=none;top=0;left=0;bottom=0;right=0;pointerEvents=1;fontSize=16;" parent="WMMUxBecpCihCAzd6EAW-131" vertex="1">
          <mxGeometry x="28" width="27" height="20" as="geometry">
            <mxRectangle width="27" height="20" as="alternateBounds" />
          </mxGeometry>
        </mxCell>
        <mxCell id="WMMUxBecpCihCAzd6EAW-134" style="edgeStyle=orthogonalEdgeStyle;rounded=0;orthogonalLoop=1;jettySize=auto;html=1;exitX=1;exitY=0.5;exitDx=0;exitDy=0;" parent="WMMUxBecpCihCAzd6EAW-124" source="WMMUxBecpCihCAzd6EAW-128" target="WMMUxBecpCihCAzd6EAW-128" edge="1">
          <mxGeometry relative="1" as="geometry" />
        </mxCell>
        <mxCell id="WMMUxBecpCihCAzd6EAW-135" value="" style="shape=table;startSize=0;container=1;collapsible=0;childLayout=tableLayout;fontSize=16;movable=1;resizable=1;rotatable=1;deletable=1;editable=1;locked=0;connectable=1;" parent="1" vertex="1">
          <mxGeometry x="680" y="50" width="55" height="60" as="geometry" />
        </mxCell>
        <mxCell id="WMMUxBecpCihCAzd6EAW-136" value="" style="shape=tableRow;horizontal=0;startSize=0;swimlaneHead=0;swimlaneBody=0;strokeColor=inherit;top=0;left=0;bottom=0;right=0;collapsible=0;dropTarget=0;fillColor=none;points=[[0,0.5],[1,0.5]];portConstraint=eastwest;fontSize=16;" parent="WMMUxBecpCihCAzd6EAW-135" vertex="1">
          <mxGeometry width="55" height="20" as="geometry" />
        </mxCell>
        <mxCell id="WMMUxBecpCihCAzd6EAW-137" value="Key" style="shape=partialRectangle;html=1;whiteSpace=wrap;connectable=0;strokeColor=inherit;overflow=hidden;fillColor=#66CC00;top=0;left=0;bottom=0;right=0;pointerEvents=1;fontSize=16;" parent="WMMUxBecpCihCAzd6EAW-136" vertex="1">
          <mxGeometry width="28" height="20" as="geometry">
            <mxRectangle width="28" height="20" as="alternateBounds" />
          </mxGeometry>
        </mxCell>
        <mxCell id="WMMUxBecpCihCAzd6EAW-138" value="Value" style="shape=partialRectangle;html=1;whiteSpace=wrap;connectable=0;strokeColor=inherit;overflow=hidden;fillColor=#66CC00;top=0;left=0;bottom=0;right=0;pointerEvents=1;fontSize=16;" parent="WMMUxBecpCihCAzd6EAW-136" vertex="1">
          <mxGeometry x="28" width="27" height="20" as="geometry">
            <mxRectangle width="27" height="20" as="alternateBounds" />
          </mxGeometry>
        </mxCell>
        <mxCell id="WMMUxBecpCihCAzd6EAW-139" value="" style="shape=tableRow;horizontal=0;startSize=0;swimlaneHead=0;swimlaneBody=0;strokeColor=inherit;top=0;left=0;bottom=0;right=0;collapsible=0;dropTarget=0;fillColor=none;points=[[0,0.5],[1,0.5]];portConstraint=eastwest;fontSize=16;" parent="WMMUxBecpCihCAzd6EAW-135" vertex="1">
          <mxGeometry y="20" width="55" height="20" as="geometry" />
        </mxCell>
        <mxCell id="WMMUxBecpCihCAzd6EAW-140" value="" style="shape=partialRectangle;html=1;whiteSpace=wrap;connectable=0;strokeColor=inherit;overflow=hidden;fillColor=none;top=0;left=0;bottom=0;right=0;pointerEvents=1;fontSize=16;" parent="WMMUxBecpCihCAzd6EAW-139" vertex="1">
          <mxGeometry width="28" height="20" as="geometry">
            <mxRectangle width="28" height="20" as="alternateBounds" />
          </mxGeometry>
        </mxCell>
        <mxCell id="WMMUxBecpCihCAzd6EAW-141" value="" style="shape=partialRectangle;html=1;whiteSpace=wrap;connectable=0;strokeColor=inherit;overflow=hidden;fillColor=none;top=0;left=0;bottom=0;right=0;pointerEvents=1;fontSize=16;" parent="WMMUxBecpCihCAzd6EAW-139" vertex="1">
          <mxGeometry x="28" width="27" height="20" as="geometry">
            <mxRectangle width="27" height="20" as="alternateBounds" />
          </mxGeometry>
        </mxCell>
        <mxCell id="WMMUxBecpCihCAzd6EAW-142" value="" style="shape=tableRow;horizontal=0;startSize=0;swimlaneHead=0;swimlaneBody=0;strokeColor=inherit;top=0;left=0;bottom=0;right=0;collapsible=0;dropTarget=0;fillColor=none;points=[[0,0.5],[1,0.5]];portConstraint=eastwest;fontSize=16;" parent="WMMUxBecpCihCAzd6EAW-135" vertex="1">
          <mxGeometry y="40" width="55" height="20" as="geometry" />
        </mxCell>
        <mxCell id="WMMUxBecpCihCAzd6EAW-143" value="" style="shape=partialRectangle;html=1;whiteSpace=wrap;connectable=0;strokeColor=inherit;overflow=hidden;fillColor=none;top=0;left=0;bottom=0;right=0;pointerEvents=1;fontSize=16;" parent="WMMUxBecpCihCAzd6EAW-142" vertex="1">
          <mxGeometry width="28" height="20" as="geometry">
            <mxRectangle width="28" height="20" as="alternateBounds" />
          </mxGeometry>
        </mxCell>
        <mxCell id="WMMUxBecpCihCAzd6EAW-144" value="" style="shape=partialRectangle;html=1;whiteSpace=wrap;connectable=0;strokeColor=inherit;overflow=hidden;fillColor=none;top=0;left=0;bottom=0;right=0;pointerEvents=1;fontSize=16;" parent="WMMUxBecpCihCAzd6EAW-142" vertex="1">
          <mxGeometry x="28" width="27" height="20" as="geometry">
            <mxRectangle width="27" height="20" as="alternateBounds" />
          </mxGeometry>
        </mxCell>
        <mxCell id="WMMUxBecpCihCAzd6EAW-145" style="edgeStyle=orthogonalEdgeStyle;rounded=0;orthogonalLoop=1;jettySize=auto;html=1;exitX=1;exitY=0.5;exitDx=0;exitDy=0;" parent="WMMUxBecpCihCAzd6EAW-135" source="WMMUxBecpCihCAzd6EAW-139" target="WMMUxBecpCihCAzd6EAW-139" edge="1">
          <mxGeometry relative="1" as="geometry" />
        </mxCell>
        <mxCell id="WMMUxBecpCihCAzd6EAW-146" value="" style="shape=table;startSize=0;container=1;collapsible=0;childLayout=tableLayout;fontSize=16;movable=1;resizable=1;rotatable=1;deletable=1;editable=1;locked=0;connectable=1;" parent="1" vertex="1">
          <mxGeometry x="680" y="150" width="55" height="60" as="geometry" />
        </mxCell>
        <mxCell id="WMMUxBecpCihCAzd6EAW-147" value="" style="shape=tableRow;horizontal=0;startSize=0;swimlaneHead=0;swimlaneBody=0;strokeColor=inherit;top=0;left=0;bottom=0;right=0;collapsible=0;dropTarget=0;fillColor=none;points=[[0,0.5],[1,0.5]];portConstraint=eastwest;fontSize=16;" parent="WMMUxBecpCihCAzd6EAW-146" vertex="1">
          <mxGeometry width="55" height="20" as="geometry" />
        </mxCell>
        <mxCell id="WMMUxBecpCihCAzd6EAW-148" value="Key" style="shape=partialRectangle;html=1;whiteSpace=wrap;connectable=0;strokeColor=inherit;overflow=hidden;fillColor=#66CC00;top=0;left=0;bottom=0;right=0;pointerEvents=1;fontSize=16;" parent="WMMUxBecpCihCAzd6EAW-147" vertex="1">
          <mxGeometry width="28" height="20" as="geometry">
            <mxRectangle width="28" height="20" as="alternateBounds" />
          </mxGeometry>
        </mxCell>
        <mxCell id="WMMUxBecpCihCAzd6EAW-149" value="Value" style="shape=partialRectangle;html=1;whiteSpace=wrap;connectable=0;strokeColor=inherit;overflow=hidden;fillColor=#66CC00;top=0;left=0;bottom=0;right=0;pointerEvents=1;fontSize=16;" parent="WMMUxBecpCihCAzd6EAW-147" vertex="1">
          <mxGeometry x="28" width="27" height="20" as="geometry">
            <mxRectangle width="27" height="20" as="alternateBounds" />
          </mxGeometry>
        </mxCell>
        <mxCell id="WMMUxBecpCihCAzd6EAW-150" value="" style="shape=tableRow;horizontal=0;startSize=0;swimlaneHead=0;swimlaneBody=0;strokeColor=inherit;top=0;left=0;bottom=0;right=0;collapsible=0;dropTarget=0;fillColor=none;points=[[0,0.5],[1,0.5]];portConstraint=eastwest;fontSize=16;" parent="WMMUxBecpCihCAzd6EAW-146" vertex="1">
          <mxGeometry y="20" width="55" height="20" as="geometry" />
        </mxCell>
        <mxCell id="WMMUxBecpCihCAzd6EAW-151" value="" style="shape=partialRectangle;html=1;whiteSpace=wrap;connectable=0;strokeColor=inherit;overflow=hidden;fillColor=none;top=0;left=0;bottom=0;right=0;pointerEvents=1;fontSize=16;" parent="WMMUxBecpCihCAzd6EAW-150" vertex="1">
          <mxGeometry width="28" height="20" as="geometry">
            <mxRectangle width="28" height="20" as="alternateBounds" />
          </mxGeometry>
        </mxCell>
        <mxCell id="WMMUxBecpCihCAzd6EAW-152" value="" style="shape=partialRectangle;html=1;whiteSpace=wrap;connectable=0;strokeColor=inherit;overflow=hidden;fillColor=none;top=0;left=0;bottom=0;right=0;pointerEvents=1;fontSize=16;" parent="WMMUxBecpCihCAzd6EAW-150" vertex="1">
          <mxGeometry x="28" width="27" height="20" as="geometry">
            <mxRectangle width="27" height="20" as="alternateBounds" />
          </mxGeometry>
        </mxCell>
        <mxCell id="WMMUxBecpCihCAzd6EAW-153" value="" style="shape=tableRow;horizontal=0;startSize=0;swimlaneHead=0;swimlaneBody=0;strokeColor=inherit;top=0;left=0;bottom=0;right=0;collapsible=0;dropTarget=0;fillColor=none;points=[[0,0.5],[1,0.5]];portConstraint=eastwest;fontSize=16;" parent="WMMUxBecpCihCAzd6EAW-146" vertex="1">
          <mxGeometry y="40" width="55" height="20" as="geometry" />
        </mxCell>
        <mxCell id="WMMUxBecpCihCAzd6EAW-154" value="" style="shape=partialRectangle;html=1;whiteSpace=wrap;connectable=0;strokeColor=inherit;overflow=hidden;fillColor=none;top=0;left=0;bottom=0;right=0;pointerEvents=1;fontSize=16;" parent="WMMUxBecpCihCAzd6EAW-153" vertex="1">
          <mxGeometry width="28" height="20" as="geometry">
            <mxRectangle width="28" height="20" as="alternateBounds" />
          </mxGeometry>
        </mxCell>
        <mxCell id="WMMUxBecpCihCAzd6EAW-155" value="" style="shape=partialRectangle;html=1;whiteSpace=wrap;connectable=0;strokeColor=inherit;overflow=hidden;fillColor=none;top=0;left=0;bottom=0;right=0;pointerEvents=1;fontSize=16;" parent="WMMUxBecpCihCAzd6EAW-153" vertex="1">
          <mxGeometry x="28" width="27" height="20" as="geometry">
            <mxRectangle width="27" height="20" as="alternateBounds" />
          </mxGeometry>
        </mxCell>
        <mxCell id="WMMUxBecpCihCAzd6EAW-156" style="edgeStyle=orthogonalEdgeStyle;rounded=0;orthogonalLoop=1;jettySize=auto;html=1;exitX=1;exitY=0.5;exitDx=0;exitDy=0;" parent="WMMUxBecpCihCAzd6EAW-146" source="WMMUxBecpCihCAzd6EAW-150" target="WMMUxBecpCihCAzd6EAW-150" edge="1">
          <mxGeometry relative="1" as="geometry" />
        </mxCell>
        <mxCell id="WMMUxBecpCihCAzd6EAW-157" value="" style="shape=table;startSize=0;container=1;collapsible=0;childLayout=tableLayout;fontSize=16;movable=1;resizable=1;rotatable=1;deletable=1;editable=1;locked=0;connectable=1;" parent="1" vertex="1">
          <mxGeometry x="680" y="250" width="55" height="60" as="geometry" />
        </mxCell>
        <mxCell id="WMMUxBecpCihCAzd6EAW-158" value="" style="shape=tableRow;horizontal=0;startSize=0;swimlaneHead=0;swimlaneBody=0;strokeColor=inherit;top=0;left=0;bottom=0;right=0;collapsible=0;dropTarget=0;fillColor=none;points=[[0,0.5],[1,0.5]];portConstraint=eastwest;fontSize=16;" parent="WMMUxBecpCihCAzd6EAW-157" vertex="1">
          <mxGeometry width="55" height="20" as="geometry" />
        </mxCell>
        <mxCell id="WMMUxBecpCihCAzd6EAW-159" value="Key" style="shape=partialRectangle;html=1;whiteSpace=wrap;connectable=0;strokeColor=inherit;overflow=hidden;fillColor=#66CC00;top=0;left=0;bottom=0;right=0;pointerEvents=1;fontSize=16;" parent="WMMUxBecpCihCAzd6EAW-158" vertex="1">
          <mxGeometry width="28" height="20" as="geometry">
            <mxRectangle width="28" height="20" as="alternateBounds" />
          </mxGeometry>
        </mxCell>
        <mxCell id="WMMUxBecpCihCAzd6EAW-160" value="Value" style="shape=partialRectangle;html=1;whiteSpace=wrap;connectable=0;strokeColor=inherit;overflow=hidden;fillColor=#66CC00;top=0;left=0;bottom=0;right=0;pointerEvents=1;fontSize=16;" parent="WMMUxBecpCihCAzd6EAW-158" vertex="1">
          <mxGeometry x="28" width="27" height="20" as="geometry">
            <mxRectangle width="27" height="20" as="alternateBounds" />
          </mxGeometry>
        </mxCell>
        <mxCell id="WMMUxBecpCihCAzd6EAW-161" value="" style="shape=tableRow;horizontal=0;startSize=0;swimlaneHead=0;swimlaneBody=0;strokeColor=inherit;top=0;left=0;bottom=0;right=0;collapsible=0;dropTarget=0;fillColor=none;points=[[0,0.5],[1,0.5]];portConstraint=eastwest;fontSize=16;" parent="WMMUxBecpCihCAzd6EAW-157" vertex="1">
          <mxGeometry y="20" width="55" height="20" as="geometry" />
        </mxCell>
        <mxCell id="WMMUxBecpCihCAzd6EAW-162" value="" style="shape=partialRectangle;html=1;whiteSpace=wrap;connectable=0;strokeColor=inherit;overflow=hidden;fillColor=none;top=0;left=0;bottom=0;right=0;pointerEvents=1;fontSize=16;" parent="WMMUxBecpCihCAzd6EAW-161" vertex="1">
          <mxGeometry width="28" height="20" as="geometry">
            <mxRectangle width="28" height="20" as="alternateBounds" />
          </mxGeometry>
        </mxCell>
        <mxCell id="WMMUxBecpCihCAzd6EAW-163" value="" style="shape=partialRectangle;html=1;whiteSpace=wrap;connectable=0;strokeColor=inherit;overflow=hidden;fillColor=none;top=0;left=0;bottom=0;right=0;pointerEvents=1;fontSize=16;" parent="WMMUxBecpCihCAzd6EAW-161" vertex="1">
          <mxGeometry x="28" width="27" height="20" as="geometry">
            <mxRectangle width="27" height="20" as="alternateBounds" />
          </mxGeometry>
        </mxCell>
        <mxCell id="WMMUxBecpCihCAzd6EAW-164" value="" style="shape=tableRow;horizontal=0;startSize=0;swimlaneHead=0;swimlaneBody=0;strokeColor=inherit;top=0;left=0;bottom=0;right=0;collapsible=0;dropTarget=0;fillColor=none;points=[[0,0.5],[1,0.5]];portConstraint=eastwest;fontSize=16;" parent="WMMUxBecpCihCAzd6EAW-157" vertex="1">
          <mxGeometry y="40" width="55" height="20" as="geometry" />
        </mxCell>
        <mxCell id="WMMUxBecpCihCAzd6EAW-165" value="" style="shape=partialRectangle;html=1;whiteSpace=wrap;connectable=0;strokeColor=inherit;overflow=hidden;fillColor=none;top=0;left=0;bottom=0;right=0;pointerEvents=1;fontSize=16;" parent="WMMUxBecpCihCAzd6EAW-164" vertex="1">
          <mxGeometry width="28" height="20" as="geometry">
            <mxRectangle width="28" height="20" as="alternateBounds" />
          </mxGeometry>
        </mxCell>
        <mxCell id="WMMUxBecpCihCAzd6EAW-166" value="" style="shape=partialRectangle;html=1;whiteSpace=wrap;connectable=0;strokeColor=inherit;overflow=hidden;fillColor=none;top=0;left=0;bottom=0;right=0;pointerEvents=1;fontSize=16;" parent="WMMUxBecpCihCAzd6EAW-164" vertex="1">
          <mxGeometry x="28" width="27" height="20" as="geometry">
            <mxRectangle width="27" height="20" as="alternateBounds" />
          </mxGeometry>
        </mxCell>
        <mxCell id="WMMUxBecpCihCAzd6EAW-167" style="edgeStyle=orthogonalEdgeStyle;rounded=0;orthogonalLoop=1;jettySize=auto;html=1;exitX=1;exitY=0.5;exitDx=0;exitDy=0;" parent="WMMUxBecpCihCAzd6EAW-157" source="WMMUxBecpCihCAzd6EAW-161" target="WMMUxBecpCihCAzd6EAW-161" edge="1">
          <mxGeometry relative="1" as="geometry" />
        </mxCell>
        <mxCell id="WMMUxBecpCihCAzd6EAW-168" value="" style="endArrow=classic;html=1;rounded=0;exitX=1;exitY=0.5;exitDx=0;exitDy=0;entryX=0;entryY=0.5;entryDx=0;entryDy=0;" parent="1" source="WMMUxBecpCihCAzd6EAW-98" target="WMMUxBecpCihCAzd6EAW-95" edge="1">
          <mxGeometry width="50" height="50" relative="1" as="geometry">
            <mxPoint x="620" y="110" as="sourcePoint" />
            <mxPoint x="670" y="60" as="targetPoint" />
          </mxGeometry>
        </mxCell>
        <mxCell id="WMMUxBecpCihCAzd6EAW-169" value="" style="endArrow=classic;html=1;rounded=0;exitX=1;exitY=0.5;exitDx=0;exitDy=0;entryX=0;entryY=0.5;entryDx=0;entryDy=0;" parent="1" source="WMMUxBecpCihCAzd6EAW-99" target="WMMUxBecpCihCAzd6EAW-96" edge="1">
          <mxGeometry width="50" height="50" relative="1" as="geometry">
            <mxPoint x="230" y="-110" as="sourcePoint" />
            <mxPoint x="410" y="-110" as="targetPoint" />
          </mxGeometry>
        </mxCell>
        <mxCell id="WMMUxBecpCihCAzd6EAW-170" value="" style="endArrow=classic;html=1;rounded=0;exitX=1;exitY=0.5;exitDx=0;exitDy=0;entryX=0;entryY=0.5;entryDx=0;entryDy=0;" parent="1" source="WMMUxBecpCihCAzd6EAW-100" target="WMMUxBecpCihCAzd6EAW-97" edge="1">
          <mxGeometry width="50" height="50" relative="1" as="geometry">
            <mxPoint x="240" y="-100" as="sourcePoint" />
            <mxPoint x="420" y="-100" as="targetPoint" />
          </mxGeometry>
        </mxCell>
        <mxCell id="WMMUxBecpCihCAzd6EAW-171" value="" style="endArrow=classic;html=1;rounded=0;exitX=1;exitY=0.5;exitDx=0;exitDy=0;entryX=0;entryY=0.5;entryDx=0;entryDy=0;" parent="1" source="WMMUxBecpCihCAzd6EAW-101" target="WMMUxBecpCihCAzd6EAW-94" edge="1">
          <mxGeometry width="50" height="50" relative="1" as="geometry">
            <mxPoint x="250" y="-90" as="sourcePoint" />
            <mxPoint x="430" y="-90" as="targetPoint" />
          </mxGeometry>
        </mxCell>
        <mxCell id="WMMUxBecpCihCAzd6EAW-172" value="" style="endArrow=classic;html=1;rounded=0;exitX=1;exitY=0.5;exitDx=0;exitDy=0;entryX=0;entryY=0.5;entryDx=0;entryDy=0;" parent="1" source="WMMUxBecpCihCAzd6EAW-102" target="WMMUxBecpCihCAzd6EAW-93" edge="1">
          <mxGeometry width="50" height="50" relative="1" as="geometry">
            <mxPoint x="260" y="-80" as="sourcePoint" />
            <mxPoint x="440" y="-80" as="targetPoint" />
          </mxGeometry>
        </mxCell>
        <mxCell id="WMMUxBecpCihCAzd6EAW-173" value="&lt;div&gt;Worker&lt;/div&gt;" style="ellipse;whiteSpace=wrap;html=1;rounded=0;shadow=0;comic=0;labelBackgroundColor=none;strokeWidth=1;fontFamily=Verdana;fontSize=12;align=center;fillColor=light-dark(#9933FF,var(--ge-dark-color, #121212));" parent="1" vertex="1">
          <mxGeometry x="920" y="240" width="130" height="80" as="geometry" />
        </mxCell>
        <mxCell id="WMMUxBecpCihCAzd6EAW-174" value="&lt;div&gt;Worker&lt;/div&gt;" style="ellipse;whiteSpace=wrap;html=1;rounded=0;shadow=0;comic=0;labelBackgroundColor=none;strokeWidth=1;fontFamily=Verdana;fontSize=12;align=center;fillColor=light-dark(#9933FF,var(--ge-dark-color, #121212));" parent="1" vertex="1">
          <mxGeometry x="920" y="140" width="130" height="80" as="geometry" />
        </mxCell>
        <mxCell id="WMMUxBecpCihCAzd6EAW-175" value="&lt;div&gt;Worker&lt;/div&gt;" style="ellipse;whiteSpace=wrap;html=1;rounded=0;shadow=0;comic=0;labelBackgroundColor=none;strokeWidth=1;fontFamily=Verdana;fontSize=12;align=center;fillColor=light-dark(#9933FF,var(--ge-dark-color, #121212));" parent="1" vertex="1">
          <mxGeometry x="920" y="-160" width="130" height="80" as="geometry" />
        </mxCell>
        <mxCell id="WMMUxBecpCihCAzd6EAW-176" value="&lt;div&gt;Worker&lt;/div&gt;" style="ellipse;whiteSpace=wrap;html=1;rounded=0;shadow=0;comic=0;labelBackgroundColor=none;strokeWidth=1;fontFamily=Verdana;fontSize=12;align=center;fillColor=light-dark(#9933FF,var(--ge-dark-color, #121212));" parent="1" vertex="1">
          <mxGeometry x="920" y="-60" width="130" height="80" as="geometry" />
        </mxCell>
        <mxCell id="WMMUxBecpCihCAzd6EAW-177" value="&lt;div&gt;Worker&lt;/div&gt;" style="ellipse;whiteSpace=wrap;html=1;rounded=0;shadow=0;comic=0;labelBackgroundColor=none;strokeWidth=1;fontFamily=Verdana;fontSize=12;align=center;fillColor=light-dark(#9933FF,var(--ge-dark-color, #121212));" parent="1" vertex="1">
          <mxGeometry x="920" y="40" width="130" height="80" as="geometry" />
        </mxCell>
        <mxCell id="WMMUxBecpCihCAzd6EAW-178" value="" style="endArrow=classic;html=1;rounded=0;exitX=1;exitY=1;exitDx=0;exitDy=0;entryX=0;entryY=0;entryDx=0;entryDy=0;" parent="1" source="WMMUxBecpCihCAzd6EAW-92" target="WMMUxBecpCihCAzd6EAW-175" edge="1">
          <mxGeometry width="50" height="50" relative="1" as="geometry">
            <mxPoint x="1244" y="-242" as="sourcePoint" />
            <mxPoint x="1260" as="targetPoint" />
          </mxGeometry>
        </mxCell>
        <mxCell id="WMMUxBecpCihCAzd6EAW-179" value="Assign" style="edgeLabel;html=1;align=center;verticalAlign=middle;resizable=0;points=[];" parent="WMMUxBecpCihCAzd6EAW-178" vertex="1" connectable="0">
          <mxGeometry x="-0.1224" y="-1" relative="1" as="geometry">
            <mxPoint as="offset" />
          </mxGeometry>
        </mxCell>
        <mxCell id="WMMUxBecpCihCAzd6EAW-180" value="" style="endArrow=classic;html=1;rounded=0;exitX=1;exitY=1;exitDx=0;exitDy=0;entryX=0;entryY=0;entryDx=0;entryDy=0;" parent="1" source="WMMUxBecpCihCAzd6EAW-92" target="WMMUxBecpCihCAzd6EAW-176" edge="1">
          <mxGeometry width="50" height="50" relative="1" as="geometry">
            <mxPoint x="1244" y="-242" as="sourcePoint" />
            <mxPoint x="1211" y="-37" as="targetPoint" />
          </mxGeometry>
        </mxCell>
        <mxCell id="WMMUxBecpCihCAzd6EAW-181" value="Assign" style="edgeLabel;html=1;align=center;verticalAlign=middle;resizable=0;points=[];" parent="WMMUxBecpCihCAzd6EAW-180" vertex="1" connectable="0">
          <mxGeometry x="-0.205" y="-3" relative="1" as="geometry">
            <mxPoint y="1" as="offset" />
          </mxGeometry>
        </mxCell>
        <mxCell id="WMMUxBecpCihCAzd6EAW-182" value="" style="endArrow=classic;html=1;rounded=0;exitX=1;exitY=1;exitDx=0;exitDy=0;entryX=0;entryY=0;entryDx=0;entryDy=0;" parent="1" source="WMMUxBecpCihCAzd6EAW-92" target="WMMUxBecpCihCAzd6EAW-177" edge="1">
          <mxGeometry width="50" height="50" relative="1" as="geometry">
            <mxPoint x="1244" y="-242" as="sourcePoint" />
            <mxPoint x="1120" y="-129" as="targetPoint" />
          </mxGeometry>
        </mxCell>
        <mxCell id="WMMUxBecpCihCAzd6EAW-183" value="Assign" style="edgeLabel;html=1;align=center;verticalAlign=middle;resizable=0;points=[];" parent="WMMUxBecpCihCAzd6EAW-182" vertex="1" connectable="0">
          <mxGeometry x="0.1193" y="1" relative="1" as="geometry">
            <mxPoint as="offset" />
          </mxGeometry>
        </mxCell>
        <mxCell id="WMMUxBecpCihCAzd6EAW-184" value="" style="endArrow=classic;html=1;rounded=0;exitX=1;exitY=1;exitDx=0;exitDy=0;entryX=0;entryY=0;entryDx=0;entryDy=0;" parent="1" source="WMMUxBecpCihCAzd6EAW-92" target="WMMUxBecpCihCAzd6EAW-174" edge="1">
          <mxGeometry width="50" height="50" relative="1" as="geometry">
            <mxPoint x="1244" y="-242" as="sourcePoint" />
            <mxPoint x="1111" y="62" as="targetPoint" />
          </mxGeometry>
        </mxCell>
        <mxCell id="WMMUxBecpCihCAzd6EAW-185" value="Assign" style="edgeLabel;html=1;align=center;verticalAlign=middle;resizable=0;points=[];" parent="WMMUxBecpCihCAzd6EAW-184" vertex="1" connectable="0">
          <mxGeometry x="0.0708" relative="1" as="geometry">
            <mxPoint y="1" as="offset" />
          </mxGeometry>
        </mxCell>
        <mxCell id="WMMUxBecpCihCAzd6EAW-186" value="" style="endArrow=classic;html=1;rounded=0;exitX=1;exitY=1;exitDx=0;exitDy=0;entryX=0;entryY=0;entryDx=0;entryDy=0;" parent="1" source="WMMUxBecpCihCAzd6EAW-92" target="WMMUxBecpCihCAzd6EAW-173" edge="1">
          <mxGeometry width="50" height="50" relative="1" as="geometry">
            <mxPoint x="1244" y="-242" as="sourcePoint" />
            <mxPoint x="1121" y="72" as="targetPoint" />
          </mxGeometry>
        </mxCell>
        <mxCell id="WMMUxBecpCihCAzd6EAW-187" value="Assign" style="edgeLabel;html=1;align=center;verticalAlign=middle;resizable=0;points=[];" parent="WMMUxBecpCihCAzd6EAW-186" vertex="1" connectable="0">
          <mxGeometry x="-0.0056" y="-2" relative="1" as="geometry">
            <mxPoint as="offset" />
          </mxGeometry>
        </mxCell>
        <mxCell id="WMMUxBecpCihCAzd6EAW-113" value="" style="shape=table;startSize=0;container=1;collapsible=0;childLayout=tableLayout;fontSize=16;movable=1;resizable=1;rotatable=1;deletable=1;editable=1;locked=0;connectable=1;" parent="1" vertex="1">
          <mxGeometry x="680" y="-150" width="55" height="60" as="geometry" />
        </mxCell>
        <mxCell id="WMMUxBecpCihCAzd6EAW-114" value="" style="shape=tableRow;horizontal=0;startSize=0;swimlaneHead=0;swimlaneBody=0;strokeColor=inherit;top=0;left=0;bottom=0;right=0;collapsible=0;dropTarget=0;fillColor=none;points=[[0,0.5],[1,0.5]];portConstraint=eastwest;fontSize=16;" parent="WMMUxBecpCihCAzd6EAW-113" vertex="1">
          <mxGeometry width="55" height="20" as="geometry" />
        </mxCell>
        <mxCell id="WMMUxBecpCihCAzd6EAW-115" value="Key" style="shape=partialRectangle;html=1;whiteSpace=wrap;connectable=0;strokeColor=inherit;overflow=hidden;fillColor=#66CC00;top=0;left=0;bottom=0;right=0;pointerEvents=1;fontSize=16;" parent="WMMUxBecpCihCAzd6EAW-114" vertex="1">
          <mxGeometry width="28" height="20" as="geometry">
            <mxRectangle width="28" height="20" as="alternateBounds" />
          </mxGeometry>
        </mxCell>
        <mxCell id="WMMUxBecpCihCAzd6EAW-116" value="Value" style="shape=partialRectangle;html=1;whiteSpace=wrap;connectable=0;strokeColor=inherit;overflow=hidden;fillColor=#66CC00;top=0;left=0;bottom=0;right=0;pointerEvents=1;fontSize=16;" parent="WMMUxBecpCihCAzd6EAW-114" vertex="1">
          <mxGeometry x="28" width="27" height="20" as="geometry">
            <mxRectangle width="27" height="20" as="alternateBounds" />
          </mxGeometry>
        </mxCell>
        <mxCell id="WMMUxBecpCihCAzd6EAW-117" value="" style="shape=tableRow;horizontal=0;startSize=0;swimlaneHead=0;swimlaneBody=0;strokeColor=inherit;top=0;left=0;bottom=0;right=0;collapsible=0;dropTarget=0;fillColor=none;points=[[0,0.5],[1,0.5]];portConstraint=eastwest;fontSize=16;" parent="WMMUxBecpCihCAzd6EAW-113" vertex="1">
          <mxGeometry y="20" width="55" height="20" as="geometry" />
        </mxCell>
        <mxCell id="WMMUxBecpCihCAzd6EAW-118" value="" style="shape=partialRectangle;html=1;whiteSpace=wrap;connectable=0;strokeColor=inherit;overflow=hidden;fillColor=none;top=0;left=0;bottom=0;right=0;pointerEvents=1;fontSize=16;" parent="WMMUxBecpCihCAzd6EAW-117" vertex="1">
          <mxGeometry width="28" height="20" as="geometry">
            <mxRectangle width="28" height="20" as="alternateBounds" />
          </mxGeometry>
        </mxCell>
        <mxCell id="WMMUxBecpCihCAzd6EAW-119" value="" style="shape=partialRectangle;html=1;whiteSpace=wrap;connectable=0;strokeColor=inherit;overflow=hidden;fillColor=none;top=0;left=0;bottom=0;right=0;pointerEvents=1;fontSize=16;" parent="WMMUxBecpCihCAzd6EAW-117" vertex="1">
          <mxGeometry x="28" width="27" height="20" as="geometry">
            <mxRectangle width="27" height="20" as="alternateBounds" />
          </mxGeometry>
        </mxCell>
        <mxCell id="WMMUxBecpCihCAzd6EAW-120" value="" style="shape=tableRow;horizontal=0;startSize=0;swimlaneHead=0;swimlaneBody=0;strokeColor=inherit;top=0;left=0;bottom=0;right=0;collapsible=0;dropTarget=0;fillColor=none;points=[[0,0.5],[1,0.5]];portConstraint=eastwest;fontSize=16;" parent="WMMUxBecpCihCAzd6EAW-113" vertex="1">
          <mxGeometry y="40" width="55" height="20" as="geometry" />
        </mxCell>
        <mxCell id="WMMUxBecpCihCAzd6EAW-121" value="" style="shape=partialRectangle;html=1;whiteSpace=wrap;connectable=0;strokeColor=inherit;overflow=hidden;fillColor=none;top=0;left=0;bottom=0;right=0;pointerEvents=1;fontSize=16;" parent="WMMUxBecpCihCAzd6EAW-120" vertex="1">
          <mxGeometry width="28" height="20" as="geometry">
            <mxRectangle width="28" height="20" as="alternateBounds" />
          </mxGeometry>
        </mxCell>
        <mxCell id="WMMUxBecpCihCAzd6EAW-122" value="" style="shape=partialRectangle;html=1;whiteSpace=wrap;connectable=0;strokeColor=inherit;overflow=hidden;fillColor=none;top=0;left=0;bottom=0;right=0;pointerEvents=1;fontSize=16;" parent="WMMUxBecpCihCAzd6EAW-120" vertex="1">
          <mxGeometry x="28" width="27" height="20" as="geometry">
            <mxRectangle width="27" height="20" as="alternateBounds" />
          </mxGeometry>
        </mxCell>
        <mxCell id="WMMUxBecpCihCAzd6EAW-123" style="edgeStyle=orthogonalEdgeStyle;rounded=0;orthogonalLoop=1;jettySize=auto;html=1;exitX=1;exitY=0.5;exitDx=0;exitDy=0;" parent="WMMUxBecpCihCAzd6EAW-113" source="WMMUxBecpCihCAzd6EAW-117" target="WMMUxBecpCihCAzd6EAW-117" edge="1">
          <mxGeometry relative="1" as="geometry" />
        </mxCell>
        <mxCell id="WMMUxBecpCihCAzd6EAW-188" value="" style="endArrow=classic;html=1;rounded=0;exitX=1;exitY=0.5;exitDx=0;exitDy=0;entryX=0;entryY=0.5;entryDx=0;entryDy=0;" parent="1" source="WMMUxBecpCihCAzd6EAW-95" target="WMMUxBecpCihCAzd6EAW-117" edge="1">
          <mxGeometry width="50" height="50" relative="1" as="geometry">
            <mxPoint x="230" y="-110" as="sourcePoint" />
            <mxPoint x="410" y="-110" as="targetPoint" />
          </mxGeometry>
        </mxCell>
        <mxCell id="WMMUxBecpCihCAzd6EAW-189" value="" style="endArrow=classic;html=1;rounded=0;exitX=1;exitY=0.5;exitDx=0;exitDy=0;entryX=0;entryY=0.5;entryDx=0;entryDy=0;" parent="1" source="WMMUxBecpCihCAzd6EAW-96" target="WMMUxBecpCihCAzd6EAW-128" edge="1">
          <mxGeometry width="50" height="50" relative="1" as="geometry">
            <mxPoint x="540" y="-110" as="sourcePoint" />
            <mxPoint x="690" y="-110" as="targetPoint" />
          </mxGeometry>
        </mxCell>
        <mxCell id="WMMUxBecpCihCAzd6EAW-190" value="" style="endArrow=classic;html=1;rounded=0;exitX=1;exitY=0.5;exitDx=0;exitDy=0;entryX=0;entryY=0.5;entryDx=0;entryDy=0;" parent="1" source="WMMUxBecpCihCAzd6EAW-97" target="WMMUxBecpCihCAzd6EAW-135" edge="1">
          <mxGeometry width="50" height="50" relative="1" as="geometry">
            <mxPoint x="550" y="-100" as="sourcePoint" />
            <mxPoint x="700" y="-100" as="targetPoint" />
          </mxGeometry>
        </mxCell>
        <mxCell id="WMMUxBecpCihCAzd6EAW-191" value="" style="endArrow=classic;html=1;rounded=0;exitX=1;exitY=0.5;exitDx=0;exitDy=0;entryX=0;entryY=0.5;entryDx=0;entryDy=0;" parent="1" source="WMMUxBecpCihCAzd6EAW-94" target="WMMUxBecpCihCAzd6EAW-150" edge="1">
          <mxGeometry width="50" height="50" relative="1" as="geometry">
            <mxPoint x="560" y="-90" as="sourcePoint" />
            <mxPoint x="710" y="-90" as="targetPoint" />
          </mxGeometry>
        </mxCell>
        <mxCell id="WMMUxBecpCihCAzd6EAW-192" value="" style="endArrow=classic;html=1;rounded=0;exitX=1;exitY=0.5;exitDx=0;exitDy=0;entryX=0;entryY=0.5;entryDx=0;entryDy=0;" parent="1" source="WMMUxBecpCihCAzd6EAW-93" target="WMMUxBecpCihCAzd6EAW-157" edge="1">
          <mxGeometry width="50" height="50" relative="1" as="geometry">
            <mxPoint x="570" y="-80" as="sourcePoint" />
            <mxPoint x="720" y="-80" as="targetPoint" />
          </mxGeometry>
        </mxCell>
        <mxCell id="WMMUxBecpCihCAzd6EAW-193" value="&lt;div&gt;User Program&lt;/div&gt;" style="ellipse;whiteSpace=wrap;html=1;rounded=0;shadow=1;comic=0;labelBackgroundColor=none;strokeWidth=1;fontFamily=Verdana;fontSize=12;align=center;fillColor=light-dark(#3399FF,var(--ge-dark-color, #121212));" parent="1" vertex="1">
          <mxGeometry x="627.5" y="-420" width="155" height="90" as="geometry" />
        </mxCell>
        <mxCell id="WMMUxBecpCihCAzd6EAW-195" value="" style="shape=flexArrow;endArrow=classic;html=1;rounded=0;" parent="1" edge="1">
          <mxGeometry width="50" height="50" relative="1" as="geometry">
            <mxPoint x="620" y="-340" as="sourcePoint" />
            <mxPoint x="490" y="-180" as="targetPoint" />
          </mxGeometry>
        </mxCell>
        <mxCell id="WMMUxBecpCihCAzd6EAW-200" value="Fork" style="edgeLabel;html=1;align=center;verticalAlign=middle;resizable=0;points=[];" parent="WMMUxBecpCihCAzd6EAW-195" vertex="1" connectable="0">
          <mxGeometry x="-0.1454" y="-7" relative="1" as="geometry">
            <mxPoint as="offset" />
          </mxGeometry>
        </mxCell>
        <mxCell id="WMMUxBecpCihCAzd6EAW-196" value="" style="shape=flexArrow;endArrow=classic;html=1;rounded=0;" parent="1" edge="1">
          <mxGeometry width="50" height="50" relative="1" as="geometry">
            <mxPoint x="790" y="-340" as="sourcePoint" />
            <mxPoint x="940" y="-180" as="targetPoint" />
          </mxGeometry>
        </mxCell>
        <mxCell id="WMMUxBecpCihCAzd6EAW-202" value="Fork" style="edgeLabel;html=1;align=center;verticalAlign=middle;resizable=0;points=[];" parent="WMMUxBecpCihCAzd6EAW-196" vertex="1" connectable="0">
          <mxGeometry x="-0.0804" y="8" relative="1" as="geometry">
            <mxPoint x="-1" as="offset" />
          </mxGeometry>
        </mxCell>
        <mxCell id="WMMUxBecpCihCAzd6EAW-197" value="" style="shape=flexArrow;endArrow=classic;html=1;rounded=0;" parent="1" edge="1">
          <mxGeometry width="50" height="50" relative="1" as="geometry">
            <mxPoint x="707" y="-310" as="sourcePoint" />
            <mxPoint x="706.91" y="-260" as="targetPoint" />
          </mxGeometry>
        </mxCell>
        <mxCell id="WMMUxBecpCihCAzd6EAW-201" value="Fork" style="edgeLabel;html=1;align=center;verticalAlign=middle;resizable=0;points=[];" parent="WMMUxBecpCihCAzd6EAW-197" vertex="1" connectable="0">
          <mxGeometry x="-0.4075" y="6" relative="1" as="geometry">
            <mxPoint as="offset" />
          </mxGeometry>
        </mxCell>
        <mxCell id="WMMUxBecpCihCAzd6EAW-198" value="&lt;font style=&quot;font-size: 18px;&quot;&gt;&lt;b style=&quot;&quot;&gt;MapPhase&lt;/b&gt;&lt;/font&gt;" style="text;html=1;align=center;verticalAlign=middle;resizable=0;points=[];autosize=1;strokeColor=none;fillColor=none;" parent="1" vertex="1">
          <mxGeometry x="410" y="353" width="110" height="40" as="geometry" />
        </mxCell>
        <mxCell id="WMMUxBecpCihCAzd6EAW-199" value="&lt;font style=&quot;font-size: 18px;&quot;&gt;&lt;b&gt;ReducePhase&lt;/b&gt;&lt;/font&gt;" style="text;html=1;align=center;verticalAlign=middle;resizable=0;points=[];autosize=1;strokeColor=none;fillColor=none;" parent="1" vertex="1">
          <mxGeometry x="920" y="353" width="140" height="40" as="geometry" />
        </mxCell>
        <mxCell id="WMMUxBecpCihCAzd6EAW-203" value="Output" style="rounded=1;whiteSpace=wrap;html=1;fillColor=light-dark(#CCCC00,var(--ge-dark-color, #121212));" parent="1" vertex="1">
          <mxGeometry x="1160" y="-150" width="120" height="60" as="geometry" />
        </mxCell>
        <mxCell id="WMMUxBecpCihCAzd6EAW-204" value="Output" style="rounded=1;whiteSpace=wrap;html=1;fillColor=light-dark(#CCCC00,var(--ge-dark-color, #121212));" parent="1" vertex="1">
          <mxGeometry x="1160" y="-50" width="120" height="60" as="geometry" />
        </mxCell>
        <mxCell id="WMMUxBecpCihCAzd6EAW-205" value="Output" style="rounded=1;whiteSpace=wrap;html=1;fillColor=light-dark(#CCCC00,var(--ge-dark-color, #121212));" parent="1" vertex="1">
          <mxGeometry x="1160" y="50" width="120" height="60" as="geometry" />
        </mxCell>
        <mxCell id="WMMUxBecpCihCAzd6EAW-206" value="Output" style="rounded=1;whiteSpace=wrap;html=1;fillColor=light-dark(#CCCC00,var(--ge-dark-color, #121212));" parent="1" vertex="1">
          <mxGeometry x="1160" y="150" width="120" height="60" as="geometry" />
        </mxCell>
        <mxCell id="WMMUxBecpCihCAzd6EAW-207" value="Output" style="rounded=1;whiteSpace=wrap;html=1;fillColor=light-dark(#CCCC00,var(--ge-dark-color, #121212));" parent="1" vertex="1">
          <mxGeometry x="1160" y="250" width="120" height="60" as="geometry" />
        </mxCell>
        <mxCell id="vVkLw_OLtc8E1EprbUwc-1" value="" style="shape=image;verticalLabelPosition=bottom;labelBackgroundColor=default;verticalAlign=top;aspect=fixed;imageAspect=0;editableCssRules=.*;image=data:image/svg+xml,PHN2ZyB4bWxucz0iaHR0cDovL3d3dy53My5vcmcvMjAwMC9zdmciIGlkPSJleHBvcnQtc3ZnIiB3aWR0aD0iNjMxLjQ2NDg0Mzc1IiBjbGFzcz0iZmxvd2NoYXJ0IiBzdHlsZT0ibWF4LXdpZHRoOiA2NDcuNDY0ODQzNzVweDsiIHZpZXdCb3g9IjggOCA2MzEuNDY0ODQzNzUgMjM1IiByb2xlPSJncmFwaGljcy1kb2N1bWVudCBkb2N1bWVudCIgYXJpYS1yb2xlZGVzY3JpcHRpb249ImZsb3djaGFydC12MiIgaGVpZ2h0PSIyMzUiPjxzdHlsZT5AaW1wb3J0IHVybCgiaHR0cHM6Ly9jZG5qcy5jbG91ZGZsYXJlLmNvbS9hamF4L2xpYnMvZm9udC1hd2Vzb21lLzYuMi4wL2Nzcy9hbGwubWluLmNzcyIpOyBwIHttYXJnaW46IDA7fTwvc3R5bGU+PHN0eWxlPiNleHBvcnQtc3Zne2ZvbnQtZmFtaWx5OmFyaWFsLHNhbnMtc2VyaWY7Zm9udC1zaXplOjE0cHg7ZmlsbDojMzMzO31Aa2V5ZnJhbWVzIGVkZ2UtYW5pbWF0aW9uLWZyYW1le2Zyb217c3Ryb2tlLWRhc2hvZmZzZXQ6MDt9fUBrZXlmcmFtZXMgZGFzaHt0b3tzdHJva2UtZGFzaG9mZnNldDowO319I2V4cG9ydC1zdmcgLmVkZ2UtYW5pbWF0aW9uLXNsb3d7c3Ryb2tlLWRhc2hhcnJheTo5LDUhaW1wb3J0YW50O3N0cm9rZS1kYXNob2Zmc2V0OjkwMDthbmltYXRpb246ZGFzaCA1MHMgbGluZWFyIGluZmluaXRlO3N0cm9rZS1saW5lY2FwOnJvdW5kO30jZXhwb3J0LXN2ZyAuZWRnZS1hbmltYXRpb24tZmFzdHtzdHJva2UtZGFzaGFycmF5OjksNSFpbXBvcnRhbnQ7c3Ryb2tlLWRhc2hvZmZzZXQ6OTAwO2FuaW1hdGlvbjpkYXNoIDIwcyBsaW5lYXIgaW5maW5pdGU7c3Ryb2tlLWxpbmVjYXA6cm91bmQ7fSNleHBvcnQtc3ZnIC5lcnJvci1pY29ue2ZpbGw6I2ZmZmZmZjt9I2V4cG9ydC1zdmcgLmVycm9yLXRleHR7ZmlsbDojMDAwMDAwO3N0cm9rZTojMDAwMDAwO30jZXhwb3J0LXN2ZyAuZWRnZS10aGlja25lc3Mtbm9ybWFse3N0cm9rZS13aWR0aDoxcHg7fSNleHBvcnQtc3ZnIC5lZGdlLXRoaWNrbmVzcy10aGlja3tzdHJva2Utd2lkdGg6My41cHg7fSNleHBvcnQtc3ZnIC5lZGdlLXBhdHRlcm4tc29saWR7c3Ryb2tlLWRhc2hhcnJheTowO30jZXhwb3J0LXN2ZyAuZWRnZS10aGlja25lc3MtaW52aXNpYmxle3N0cm9rZS13aWR0aDowO2ZpbGw6bm9uZTt9I2V4cG9ydC1zdmcgLmVkZ2UtcGF0dGVybi1kYXNoZWR7c3Ryb2tlLWRhc2hhcnJheTozO30jZXhwb3J0LXN2ZyAuZWRnZS1wYXR0ZXJuLWRvdHRlZHtzdHJva2UtZGFzaGFycmF5OjI7fSNleHBvcnQtc3ZnIC5tYXJrZXJ7ZmlsbDojMDAwMDAwO3N0cm9rZTojMDAwMDAwO30jZXhwb3J0LXN2ZyAubWFya2VyLmNyb3Nze3N0cm9rZTojMDAwMDAwO30jZXhwb3J0LXN2ZyBzdmd7Zm9udC1mYW1pbHk6YXJpYWwsc2Fucy1zZXJpZjtmb250LXNpemU6MTRweDt9I2V4cG9ydC1zdmcgcHttYXJnaW46MDt9I2V4cG9ydC1zdmcgLmxhYmVse2ZvbnQtZmFtaWx5OmFyaWFsLHNhbnMtc2VyaWY7Y29sb3I6IzMzMzt9I2V4cG9ydC1zdmcgLmNsdXN0ZXItbGFiZWwgdGV4dHtmaWxsOiMwMDAwMDA7fSNleHBvcnQtc3ZnIC5jbHVzdGVyLWxhYmVsIHNwYW57Y29sb3I6IzAwMDAwMDt9I2V4cG9ydC1zdmcgLmNsdXN0ZXItbGFiZWwgc3BhbiBwe2JhY2tncm91bmQtY29sb3I6dHJhbnNwYXJlbnQ7fSNleHBvcnQtc3ZnIC5sYWJlbCB0ZXh0LCNleHBvcnQtc3ZnIHNwYW57ZmlsbDojMzMzO2NvbG9yOiMzMzM7fSNleHBvcnQtc3ZnIC5ub2RlIHJlY3QsI2V4cG9ydC1zdmcgLm5vZGUgY2lyY2xlLCNleHBvcnQtc3ZnIC5ub2RlIGVsbGlwc2UsI2V4cG9ydC1zdmcgLm5vZGUgcG9seWdvbiwjZXhwb3J0LXN2ZyAubm9kZSBwYXRoe2ZpbGw6I2ZmZmZmZjtzdHJva2U6IzAwMDAwMDtzdHJva2Utd2lkdGg6MXB4O30jZXhwb3J0LXN2ZyAucm91Z2gtbm9kZSAubGFiZWwgdGV4dCwjZXhwb3J0LXN2ZyAubm9kZSAubGFiZWwgdGV4dCwjZXhwb3J0LXN2ZyAuaW1hZ2Utc2hhcGUgLmxhYmVsLCNleHBvcnQtc3ZnIC5pY29uLXNoYXBlIC5sYWJlbHt0ZXh0LWFuY2hvcjptaWRkbGU7fSNleHBvcnQtc3ZnIC5ub2RlIC5rYXRleCBwYXRoe2ZpbGw6IzAwMDtzdHJva2U6IzAwMDtzdHJva2Utd2lkdGg6MXB4O30jZXhwb3J0LXN2ZyAucm91Z2gtbm9kZSAubGFiZWwsI2V4cG9ydC1zdmcgLm5vZGUgLmxhYmVsLCNleHBvcnQtc3ZnIC5pbWFnZS1zaGFwZSAubGFiZWwsI2V4cG9ydC1zdmcgLmljb24tc2hhcGUgLmxhYmVse3RleHQtYWxpZ246Y2VudGVyO30jZXhwb3J0LXN2ZyAubm9kZS5jbGlja2FibGV7Y3Vyc29yOnBvaW50ZXI7fSNleHBvcnQtc3ZnIC5yb290IC5hbmNob3IgcGF0aHtmaWxsOiMwMDAwMDAhaW1wb3J0YW50O3N0cm9rZS13aWR0aDowO3N0cm9rZTojMDAwMDAwO30jZXhwb3J0LXN2ZyAuYXJyb3doZWFkUGF0aHtmaWxsOiMwMDAwMDA7fSNleHBvcnQtc3ZnIC5lZGdlUGF0aCAucGF0aHtzdHJva2U6IzAwMDAwMDtzdHJva2Utd2lkdGg6MXB4O30jZXhwb3J0LXN2ZyAuZmxvd2NoYXJ0LWxpbmt7c3Ryb2tlOiMwMDAwMDA7ZmlsbDpub25lO30jZXhwb3J0LXN2ZyAuZWRnZUxhYmVse2JhY2tncm91bmQtY29sb3I6I0U5RTlGMTt0ZXh0LWFsaWduOmNlbnRlcjt9I2V4cG9ydC1zdmcgLmVkZ2VMYWJlbCBwe2JhY2tncm91bmQtY29sb3I6I0U5RTlGMTt9I2V4cG9ydC1zdmcgLmVkZ2VMYWJlbCByZWN0e29wYWNpdHk6MC41O2JhY2tncm91bmQtY29sb3I6I0U5RTlGMTtmaWxsOiNFOUU5RjE7fSNleHBvcnQtc3ZnIC5sYWJlbEJrZ3tiYWNrZ3JvdW5kLWNvbG9yOnJnYmEoMjMzLCAyMzMsIDI0MSwgMC41KTt9I2V4cG9ydC1zdmcgLmNsdXN0ZXIgcmVjdHtmaWxsOiNmZmZmZmY7c3Ryb2tlOmhzbCgwLCAwJSwgOTAlKTtzdHJva2Utd2lkdGg6MXB4O30jZXhwb3J0LXN2ZyAuY2x1c3RlciB0ZXh0e2ZpbGw6IzAwMDAwMDt9I2V4cG9ydC1zdmcgLmNsdXN0ZXIgc3Bhbntjb2xvcjojMDAwMDAwO30jZXhwb3J0LXN2ZyBkaXYubWVybWFpZFRvb2x0aXB7cG9zaXRpb246YWJzb2x1dGU7dGV4dC1hbGlnbjpjZW50ZXI7bWF4LXdpZHRoOjIwMHB4O3BhZGRpbmc6MnB4O2ZvbnQtZmFtaWx5OmFyaWFsLHNhbnMtc2VyaWY7Zm9udC1zaXplOjEycHg7YmFja2dyb3VuZDojZmZmZmZmO2JvcmRlcjoxcHggc29saWQgaHNsKDAsIDAlLCA5MCUpO2JvcmRlci1yYWRpdXM6MnB4O3BvaW50ZXItZXZlbnRzOm5vbmU7ei1pbmRleDoxMDA7fSNleHBvcnQtc3ZnIC5mbG93Y2hhcnRUaXRsZVRleHR7dGV4dC1hbmNob3I6bWlkZGxlO2ZvbnQtc2l6ZToxOHB4O2ZpbGw6IzMzMzt9I2V4cG9ydC1zdmcgcmVjdC50ZXh0e2ZpbGw6bm9uZTtzdHJva2Utd2lkdGg6MDt9I2V4cG9ydC1zdmcgLmljb24tc2hhcGUsI2V4cG9ydC1zdmcgLmltYWdlLXNoYXBle2JhY2tncm91bmQtY29sb3I6I0U5RTlGMTt0ZXh0LWFsaWduOmNlbnRlcjt9I2V4cG9ydC1zdmcgLmljb24tc2hhcGUgcCwjZXhwb3J0LXN2ZyAuaW1hZ2Utc2hhcGUgcHtiYWNrZ3JvdW5kLWNvbG9yOiNFOUU5RjE7cGFkZGluZzoycHg7fSNleHBvcnQtc3ZnIC5pY29uLXNoYXBlIHJlY3QsI2V4cG9ydC1zdmcgLmltYWdlLXNoYXBlIHJlY3R7b3BhY2l0eTowLjU7YmFja2dyb3VuZC1jb2xvcjojRTlFOUYxO2ZpbGw6I0U5RTlGMTt9I2V4cG9ydC1zdmcgLm5vZGUgLm5lby1ub2Rle3N0cm9rZTojMDAwMDAwO30jZXhwb3J0LXN2ZyBbZGF0YS1sb29rPSJuZW8iXS5ub2RlIHJlY3QsI2V4cG9ydC1zdmcgW2RhdGEtbG9vaz0ibmVvIl0uY2x1c3RlciByZWN0LCNleHBvcnQtc3ZnIFtkYXRhLWxvb2s9Im5lbyJdLm5vZGUgcG9seWdvbntzdHJva2U6dXJsKCNleHBvcnQtc3ZnLWdyYWRpZW50KTtmaWx0ZXI6ZHJvcC1zaGFkb3coIDBweCAxcHggMnB4IHJnYmEoMCwgMCwgMCwgMC4yNSkpO30jZXhwb3J0LXN2ZyBbZGF0YS1sb29rPSJuZW8iXS5ub2RlIHBhdGh7c3Ryb2tlOnVybCgjZXhwb3J0LXN2Zy1ncmFkaWVudCk7fSNleHBvcnQtc3ZnIFtkYXRhLWxvb2s9Im5lbyJdLm5vZGUgLm91dGVyLXBhdGh7ZmlsdGVyOmRyb3Atc2hhZG93KCAwcHggMXB4IDJweCByZ2JhKDAsIDAsIDAsIDAuMjUpKTt9I2V4cG9ydC1zdmcgW2RhdGEtbG9vaz0ibmVvIl0ubm9kZSAubmVvLWxpbmUgcGF0aHtzdHJva2U6aHNsKDI0MCwgNTAlLCA4Ni4wNzg0MzEzNzI1JSk7ZmlsdGVyOm5vbmU7fSNleHBvcnQtc3ZnIFtkYXRhLWxvb2s9Im5lbyJdLm5vZGUgY2lyY2xle3N0cm9rZTp1cmwoI2V4cG9ydC1zdmctZ3JhZGllbnQpO2ZpbHRlcjpkcm9wLXNoYWRvdyggMHB4IDFweCAycHggcmdiYSgwLCAwLCAwLCAwLjI1KSk7fSNleHBvcnQtc3ZnIFtkYXRhLWxvb2s9Im5lbyJdLm5vZGUgY2lyY2xlIC5zdGF0ZS1zdGFydHtmaWxsOiMwMDAwMDA7fSNleHBvcnQtc3ZnIFtkYXRhLWxvb2s9Im5lbyJdLnN0YXRlZGlhZ3JhbS1jbHVzdGVyIHJlY3R7ZmlsbDojZmZmZmZmO3N0cm9rZTp1cmwoI2V4cG9ydC1zdmctZ3JhZGllbnQpO3N0cm9rZS13aWR0aDoxcHg7fSNleHBvcnQtc3ZnIFtkYXRhLWxvb2s9Im5lbyJdLmljb24tc2hhcGUgLmljb257ZmlsbDp1cmwoI2V4cG9ydC1zdmctZ3JhZGllbnQpO2ZpbHRlcjpkcm9wLXNoYWRvdyggMHB4IDFweCAycHggcmdiYSgwLCAwLCAwLCAwLjI1KSk7fSNleHBvcnQtc3ZnIFtkYXRhLWxvb2s9Im5lbyJdLmljb24tc2hhcGUgLmljb24tbmVvIHBhdGh7c3Ryb2tlOnVybCgjZXhwb3J0LXN2Zy1ncmFkaWVudCk7ZmlsdGVyOmRyb3Atc2hhZG93KCAwcHggMXB4IDJweCByZ2JhKDAsIDAsIDAsIDAuMjUpKTt9I2V4cG9ydC1zdmcgOnJvb3R7LS1tZXJtYWlkLWZvbnQtZmFtaWx5OiJ0cmVidWNoZXQgbXMiLHZlcmRhbmEsYXJpYWwsc2Fucy1zZXJpZjt9PC9zdHlsZT48Zz48bWFya2VyIGlkPSJleHBvcnQtc3ZnX2Zsb3djaGFydC12Mi1wb2ludEVuZCIgY2xhc3M9Im1hcmtlciBmbG93Y2hhcnQtdjIiIHZpZXdCb3g9IjAgMCAxMS41IDE0IiByZWZYPSI3Ljc1IiByZWZZPSI3IiBtYXJrZXJVbml0cz0idXNlclNwYWNlT25Vc2UiIG1hcmtlcldpZHRoPSIxMC41IiBtYXJrZXJIZWlnaHQ9IjE0IiBvcmllbnQ9ImF1dG8iPjxwYXRoIGQ9Ik0gMCAwIEwgMTEuNSA3IEwgMCAxNCB6IiBjbGFzcz0iYXJyb3dNYXJrZXJQYXRoIiBzdHlsZT0ic3Ryb2tlLXdpZHRoOiAwOyBzdHJva2UtZGFzaGFycmF5OiAxLCAwOyIvPjwvbWFya2VyPjxtYXJrZXIgaWQ9ImV4cG9ydC1zdmdfZmxvd2NoYXJ0LXYyLXBvaW50U3RhcnQiIGNsYXNzPSJtYXJrZXIgZmxvd2NoYXJ0LXYyIiB2aWV3Qm94PSIwIDAgMTEuNSAxNCIgcmVmWD0iNCIgcmVmWT0iNyIgbWFya2VyVW5pdHM9InVzZXJTcGFjZU9uVXNlIiBtYXJrZXJXaWR0aD0iMTEuNSIgbWFya2VySGVpZ2h0PSIxNCIgb3JpZW50PSJhdXRvIj48cG9seWdvbiBwb2ludHM9IjAsNyAxMS41LDE0IDExLjUsMCIgY2xhc3M9ImFycm93TWFya2VyUGF0aCIgc3R5bGU9InN0cm9rZS13aWR0aDogMDsgc3Ryb2tlLWRhc2hhcnJheTogMSwgMDsiLz48L21hcmtlcj48bWFya2VyIGlkPSJleHBvcnQtc3ZnX2Zsb3djaGFydC12Mi1wb2ludEVuZC1tYXJnaW4iIGNsYXNzPSJtYXJrZXIgZmxvd2NoYXJ0LXYyIiB2aWV3Qm94PSIwIDAgMTEuNSAxNCIgcmVmWD0iMTEuNSIgcmVmWT0iNyIgbWFya2VyVW5pdHM9InVzZXJTcGFjZU9uVXNlIiBtYXJrZXJXaWR0aD0iMTAuNSIgbWFya2VySGVpZ2h0PSIxNCIgb3JpZW50PSJhdXRvIj48cGF0aCBkPSJNIDAgMCBMIDExLjUgNyBMIDAgMTQgeiIgY2xhc3M9ImFycm93TWFya2VyUGF0aCIgc3R5bGU9InN0cm9rZS13aWR0aDogMDsgc3Ryb2tlLWRhc2hhcnJheTogMSwgMDsiLz48L21hcmtlcj48bWFya2VyIGlkPSJleHBvcnQtc3ZnX2Zsb3djaGFydC12Mi1wb2ludFN0YXJ0LW1hcmdpbiIgY2xhc3M9Im1hcmtlciBmbG93Y2hhcnQtdjIiIHZpZXdCb3g9IjAgMCAxMS41IDE0IiByZWZYPSIxIiByZWZZPSI3IiBtYXJrZXJVbml0cz0idXNlclNwYWNlT25Vc2UiIG1hcmtlcldpZHRoPSIxMS41IiBtYXJrZXJIZWlnaHQ9IjE0IiBvcmllbnQ9ImF1dG8iPjxwb2x5Z29uIHBvaW50cz0iMCw3IDExLjUsMTQgMTEuNSwwIiBjbGFzcz0iYXJyb3dNYXJrZXJQYXRoIiBzdHlsZT0ic3Ryb2tlLXdpZHRoOiAwOyBzdHJva2UtZGFzaGFycmF5OiAxLCAwOyIvPjwvbWFya2VyPjxtYXJrZXIgaWQ9ImV4cG9ydC1zdmdfZmxvd2NoYXJ0LXYyLWNpcmNsZUVuZCIgY2xhc3M9Im1hcmtlciBmbG93Y2hhcnQtdjIiIHZpZXdCb3g9IjAgMCAxMCAxMCIgcmVmWT0iNSIgcmVmWD0iMTAuNzUiIG1hcmtlclVuaXRzPSJ1c2VyU3BhY2VPblVzZSIgbWFya2VyV2lkdGg9IjE0IiBtYXJrZXJIZWlnaHQ9IjE0IiBvcmllbnQ9ImF1dG8iPjxjaXJjbGUgY3g9IjUiIGN5PSI1IiByPSI1IiBjbGFzcz0iYXJyb3dNYXJrZXJQYXRoIiBzdHlsZT0ic3Ryb2tlLXdpZHRoOiAwOyBzdHJva2UtZGFzaGFycmF5OiAxLCAwOyIvPjwvbWFya2VyPjxtYXJrZXIgaWQ9ImV4cG9ydC1zdmdfZmxvd2NoYXJ0LXYyLWNpcmNsZVN0YXJ0IiBjbGFzcz0ibWFya2VyIGZsb3djaGFydC12MiIgdmlld0JveD0iMCAwIDEwIDEwIiByZWZYPSIwIiByZWZZPSI1IiBtYXJrZXJVbml0cz0idXNlclNwYWNlT25Vc2UiIG1hcmtlcldpZHRoPSIxNCIgbWFya2VySGVpZ2h0PSIxNCIgb3JpZW50PSJhdXRvIj48Y2lyY2xlIGN4PSI1IiBjeT0iNSIgcj0iNSIgY2xhc3M9ImFycm93TWFya2VyUGF0aCIgc3R5bGU9InN0cm9rZS13aWR0aDogMDsgc3Ryb2tlLWRhc2hhcnJheTogMSwgMDsiLz48L21hcmtlcj48bWFya2VyIGlkPSJleHBvcnQtc3ZnX2Zsb3djaGFydC12Mi1jaXJjbGVFbmQtbWFyZ2luIiBjbGFzcz0ibWFya2VyIGZsb3djaGFydC12MiIgdmlld0JveD0iMCAwIDEwIDEwIiByZWZZPSI1IiByZWZYPSIxMi4yNSIgbWFya2VyVW5pdHM9InVzZXJTcGFjZU9uVXNlIiBtYXJrZXJXaWR0aD0iMTQiIG1hcmtlckhlaWdodD0iMTQiIG9yaWVudD0iYXV0byI+PGNpcmNsZSBjeD0iNSIgY3k9IjUiIHI9IjUiIGNsYXNzPSJhcnJvd01hcmtlclBhdGgiIHN0eWxlPSJzdHJva2Utd2lkdGg6IDA7IHN0cm9rZS1kYXNoYXJyYXk6IDEsIDA7Ii8+PC9tYXJrZXI+PG1hcmtlciBpZD0iZXhwb3J0LXN2Z19mbG93Y2hhcnQtdjItY2lyY2xlU3RhcnQtbWFyZ2luIiBjbGFzcz0ibWFya2VyIGZsb3djaGFydC12MiIgdmlld0JveD0iMCAwIDEwIDEwIiByZWZYPSItMiIgcmVmWT0iNSIgbWFya2VyVW5pdHM9InVzZXJTcGFjZU9uVXNlIiBtYXJrZXJXaWR0aD0iMTQiIG1hcmtlckhlaWdodD0iMTQiIG9yaWVudD0iYXV0byI+PGNpcmNsZSBjeD0iNSIgY3k9IjUiIHI9IjUiIGNsYXNzPSJhcnJvd01hcmtlclBhdGgiIHN0eWxlPSJzdHJva2Utd2lkdGg6IDA7IHN0cm9rZS1kYXNoYXJyYXk6IDEsIDA7Ii8+PC9tYXJrZXI+PG1hcmtlciBpZD0iZXhwb3J0LXN2Z19mbG93Y2hhcnQtdjItY3Jvc3NFbmQiIGNsYXNzPSJtYXJrZXIgY3Jvc3MgZmxvd2NoYXJ0LXYyIiB2aWV3Qm94PSIwIDAgMTUgMTUiIHJlZlg9IjE3LjciIHJlZlk9IjcuNSIgbWFya2VyVW5pdHM9InVzZXJTcGFjZU9uVXNlIiBtYXJrZXJXaWR0aD0iMTIiIG1hcmtlckhlaWdodD0iMTIiIG9yaWVudD0iYXV0byI+PHBhdGggZD0iTSAxLDEgTCAxNCwxNCBNIDEsMTQgTCAxNCwxIiBjbGFzcz0iYXJyb3dNYXJrZXJQYXRoIiBzdHlsZT0ic3Ryb2tlLXdpZHRoOiAyLjU7Ii8+PC9tYXJrZXI+PG1hcmtlciBpZD0iZXhwb3J0LXN2Z19mbG93Y2hhcnQtdjItY3Jvc3NTdGFydCIgY2xhc3M9Im1hcmtlciBjcm9zcyBmbG93Y2hhcnQtdjIiIHZpZXdCb3g9IjAgMCAxNSAxNSIgcmVmWD0iLTMuNSIgcmVmWT0iNy41IiBtYXJrZXJVbml0cz0idXNlclNwYWNlT25Vc2UiIG1hcmtlcldpZHRoPSIxMiIgbWFya2VySGVpZ2h0PSIxMiIgb3JpZW50PSJhdXRvIj48cGF0aCBkPSJNIDEsMSBMIDE0LDE0IE0gMSwxNCBMIDE0LDEiIGNsYXNzPSJhcnJvd01hcmtlclBhdGgiIHN0eWxlPSJzdHJva2Utd2lkdGg6IDIuNTsgc3Ryb2tlLWRhc2hhcnJheTogMSwgMDsiLz48L21hcmtlcj48bWFya2VyIGlkPSJleHBvcnQtc3ZnX2Zsb3djaGFydC12Mi1jcm9zc0VuZC1tYXJnaW4iIGNsYXNzPSJtYXJrZXIgY3Jvc3MgZmxvd2NoYXJ0LXYyIiB2aWV3Qm94PSIwIDAgMTUgMTUiIHJlZlg9IjE3LjciIHJlZlk9IjcuNSIgbWFya2VyVW5pdHM9InVzZXJTcGFjZU9uVXNlIiBtYXJrZXJXaWR0aD0iMTIiIG1hcmtlckhlaWdodD0iMTIiIG9yaWVudD0iYXV0byI+PHBhdGggZD0iTSAxLDEgTCAxNCwxNCBNIDEsMTQgTCAxNCwxIiBjbGFzcz0iYXJyb3dNYXJrZXJQYXRoIiBzdHlsZT0ic3Ryb2tlLXdpZHRoOiAyLjU7Ii8+PC9tYXJrZXI+PG1hcmtlciBpZD0iZXhwb3J0LXN2Z19mbG93Y2hhcnQtdjItY3Jvc3NTdGFydC1tYXJnaW4iIGNsYXNzPSJtYXJrZXIgY3Jvc3MgZmxvd2NoYXJ0LXYyIiB2aWV3Qm94PSIwIDAgMTUgMTUiIHJlZlg9Ii0zLjUiIHJlZlk9IjcuNSIgbWFya2VyVW5pdHM9InVzZXJTcGFjZU9uVXNlIiBtYXJrZXJXaWR0aD0iMTIiIG1hcmtlckhlaWdodD0iMTIiIG9yaWVudD0iYXV0byI+PHBhdGggZD0iTSAxLDEgTCAxNCwxNCBNIDEsMTQgTCAxNCwxIiBjbGFzcz0iYXJyb3dNYXJrZXJQYXRoIiBzdHlsZT0ic3Ryb2tlLXdpZHRoOiAyLjU7IHN0cm9rZS1kYXNoYXJyYXk6IDEsIDA7Ii8+PC9tYXJrZXI+PGcgY2xhc3M9InJvb3QiPjxnIGNsYXNzPSJjbHVzdGVycyIvPjxnIGNsYXNzPSJlZGdlUGF0aHMiPjxwYXRoIGQ9Ik0xODkuMTkxNDA2MjUsNDYuMTA4NTM2NjY3OTQ1NzM1TDgwLjk1MTk5NDgzMjk3MDUsNzUuODE3Mzg4MDUxMTcyMTNRNzMsNzggNzMsODYuMjQ2MDkwOTk3NzI0NjZMNzMsOTkiIGlkPSJMX0FfQl8wIiBjbGFzcz0iZWRnZS10aGlja25lc3Mtbm9ybWFsIGVkZ2UtcGF0dGVybi1zb2xpZCBlZGdlLXRoaWNrbmVzcy1ub3JtYWwgZWRnZS1wYXR0ZXJuLXNvbGlkIGZsb3djaGFydC1saW5rIiBzdHlsZT0ic3Ryb2tlLWRhc2hhcnJheTogMCAwIDEzMC4yODkxNTQwNTI3MzQzOCA5OyBzdHJva2UtZGFzaG9mZnNldDogMDs7IiBkYXRhLWVkZ2U9InRydWUiIGRhdGEtZXQ9ImVkZ2UiIGRhdGEtaWQ9IkxfQV9CXzAiIGRhdGEtcG9pbnRzPSJXM3NpZUNJNk1UZzVMakU1TVRRd05qSTFMQ0o1SWpvME5pNHhNRGcxTXpZMk5qYzVORFUzTXpWOUxIc2llQ0k2TnpNc0lua2lPamM0ZlN4N0luZ2lPamN6TENKNUlqb3hNRE45WFE9PSIgbWFya2VyLWVuZD0idXJsKCNleHBvcnQtc3ZnX2Zsb3djaGFydC12Mi1wb2ludEVuZC1tYXJnaW4pIi8+PHBhdGggZD0iTTI0Ni4wNTg1OTM3NSw1M0wyNDYuMDU4NTkzNzUsNzhMMjQ2LjA1ODU5Mzc1LDk5IiBpZD0iTF9BX0NfMCIgY2xhc3M9ImVkZ2UtdGhpY2tuZXNzLW5vcm1hbCBlZGdlLXBhdHRlcm4tc29saWQgZWRnZS10aGlja25lc3Mtbm9ybWFsIGVkZ2UtcGF0dGVybi1zb2xpZCBmbG93Y2hhcnQtbGluayIgc3R5bGU9InN0cm9rZS1kYXNoYXJyYXk6IDAgMCAzNyA5OyBzdHJva2UtZGFzaG9mZnNldDogMDs7IiBkYXRhLWVkZ2U9InRydWUiIGRhdGEtZXQ9ImVkZ2UiIGRhdGEtaWQ9IkxfQV9DXzAiIGRhdGEtcG9pbnRzPSJXM3NpZUNJNk1qUTJMakExT0RVNU16YzFMQ0o1SWpvMU0zMHNleUo0SWpveU5EWXVNRFU0TlRrek56VXNJbmtpT2pjNGZTeDdJbmdpT2pJME5pNHdOVGcxT1RNM05Td2llU0k2TVRBemZWMD0iIG1hcmtlci1lbmQ9InVybCgjZXhwb3J0LXN2Z19mbG93Y2hhcnQtdjItcG9pbnRFbmQtbWFyZ2luKSIvPjxwYXRoIGQ9Ik0zMDIuOTI1NzgxMjUsNDIuODgxNTc5MDY1MTY2MjFMNDU2LjQzMzcxNDY5NDI0MDcsNzYuMzA0NTU0NTc0MDI0MjRRNDY0LjIyMDcwMzEyNSw3OCA0NjQuMjIwNzAzMTI1LDg1Ljk2OTQyNDMyMTMxOTY2TDQ2NC4yMjA3MDMxMjUsOTkiIGlkPSJMX0FfRF8wIiBjbGFzcz0iZWRnZS10aGlja25lc3Mtbm9ybWFsIGVkZ2UtcGF0dGVybi1zb2xpZCBlZGdlLXRoaWNrbmVzcy1ub3JtYWwgZWRnZS1wYXR0ZXJuLXNvbGlkIGZsb3djaGFydC1saW5rIiBzdHlsZT0ic3Ryb2tlLWRhc2hhcnJheTogMCAwIDE3NC43ODE5MzY2NDU1MDc4IDk7IHN0cm9rZS1kYXNob2Zmc2V0OiAwOzsiIGRhdGEtZWRnZT0idHJ1ZSIgZGF0YS1ldD0iZWRnZSIgZGF0YS1pZD0iTF9BX0RfMCIgZGF0YS1wb2ludHM9Ilczc2llQ0k2TXpBeUxqa3lOVGM0TVRJMUxDSjVJam8wTWk0NE9ERTFOemt3TmpVeE5qWXlNWDBzZXlKNElqbzBOalF1TWpJd056QXpNVEkxTENKNUlqbzNPSDBzZXlKNElqbzBOalF1TWpJd056QXpNVEkxTENKNUlqb3hNRE45WFE9PSIgbWFya2VyLWVuZD0idXJsKCNleHBvcnQtc3ZnX2Zsb3djaGFydC12Mi1wb2ludEVuZC1tYXJnaW4pIi8+PHBhdGggZD0iTTczLDE0OEw3MywxNzNMNzMsMTk0IiBpZD0iTF9CX0VfMCIgY2xhc3M9ImVkZ2UtdGhpY2tuZXNzLW5vcm1hbCBlZGdlLXBhdHRlcm4tc29saWQgZWRnZS10aGlja25lc3Mtbm9ybWFsIGVkZ2UtcGF0dGVybi1zb2xpZCBmbG93Y2hhcnQtbGluayIgc3R5bGU9InN0cm9rZS1kYXNoYXJyYXk6IDAgMCAzNyA5OyBzdHJva2UtZGFzaG9mZnNldDogMDs7IiBkYXRhLWVkZ2U9InRydWUiIGRhdGEtZXQ9ImVkZ2UiIGRhdGEtaWQ9IkxfQl9FXzAiIGRhdGEtcG9pbnRzPSJXM3NpZUNJNk56TXNJbmtpT2pFME9IMHNleUo0SWpvM015d2llU0k2TVRjemZTeDdJbmdpT2pjekxDSjVJam94T1RoOVhRPT0iIG1hcmtlci1lbmQ9InVybCgjZXhwb3J0LXN2Z19mbG93Y2hhcnQtdjItcG9pbnRFbmQtbWFyZ2luKSIvPjxwYXRoIGQ9Ik00MTEuOTk5Nzk0NDA3ODk0NzQsMTQ4TDM2Mi4zMzAyOTEyNTA0MDAyNSwxNjkuNDAwNjk2NTUwNDUyMDRRMzUzLjk3NjU2MjUsMTczIDM1My45NzY1NjI1LDE4Mi4wOTYxNDAzNTQ5NjMzTDM1My45NzY1NjI1LDE5NCIgaWQ9IkxfRF9GXzAiIGNsYXNzPSJlZGdlLXRoaWNrbmVzcy1ub3JtYWwgZWRnZS1wYXR0ZXJuLXNvbGlkIGVkZ2UtdGhpY2tuZXNzLW5vcm1hbCBlZGdlLXBhdHRlcm4tc29saWQgZmxvd2NoYXJ0LWxpbmsiIHN0eWxlPSJzdHJva2UtZGFzaGFycmF5OiAwIDAgNzMuMjE5NTY2MzQ1MjE0ODQgOTsgc3Ryb2tlLWRhc2hvZmZzZXQ6IDA7OyIgZGF0YS1lZGdlPSJ0cnVlIiBkYXRhLWV0PSJlZGdlIiBkYXRhLWlkPSJMX0RfRl8wIiBkYXRhLXBvaW50cz0iVzNzaWVDSTZOREV4TGprNU9UYzVORFF3TnpnNU5EYzBMQ0o1SWpveE5EaDlMSHNpZUNJNk16VXpMamszTmpVMk1qVXNJbmtpT2pFM00zMHNleUo0SWpvek5UTXVPVGMyTlRZeU5Td2llU0k2TVRrNGZWMD0iIG1hcmtlci1lbmQ9InVybCgjZXhwb3J0LXN2Z19mbG93Y2hhcnQtdjItcG9pbnRFbmQtbWFyZ2luKSIvPjxwYXRoIGQ9Ik01MTYuNDQxNjExODQyMTA1MiwxNDhMNTY2LjExMTExNDk5OTU5OTcsMTY5LjQwMDY5NjU1MDQ1MjA0UTU3NC40NjQ4NDM3NSwxNzMgNTc0LjQ2NDg0Mzc1LDE4Mi4wOTYxNDAzNTQ5NjMzTDU3NC40NjQ4NDM3NSwxOTQiIGlkPSJMX0RfR18wIiBjbGFzcz0iZWRnZS10aGlja25lc3Mtbm9ybWFsIGVkZ2UtcGF0dGVybi1zb2xpZCBlZGdlLXRoaWNrbmVzcy1ub3JtYWwgZWRnZS1wYXR0ZXJuLXNvbGlkIGZsb3djaGFydC1saW5rIiBzdHlsZT0ic3Ryb2tlLWRhc2hhcnJheTogMCAwIDczLjIxOTYwNDQ5MjE4NzUgOTsgc3Ryb2tlLWRhc2hvZmZzZXQ6IDA7OyIgZGF0YS1lZGdlPSJ0cnVlIiBkYXRhLWV0PSJlZGdlIiBkYXRhLWlkPSJMX0RfR18wIiBkYXRhLXBvaW50cz0iVzNzaWVDSTZOVEUyTGpRME1UWXhNVGcwTWpFd05USXNJbmtpT2pFME9IMHNleUo0SWpvMU56UXVORFkwT0RRek56VXNJbmtpT2pFM00zMHNleUo0SWpvMU56UXVORFkwT0RRek56VXNJbmtpT2pFNU9IMWQiIG1hcmtlci1lbmQ9InVybCgjZXhwb3J0LXN2Z19mbG93Y2hhcnQtdjItcG9pbnRFbmQtbWFyZ2luKSIvPjwvZz48ZyBjbGFzcz0iZWRnZUxhYmVscyI+PGcgY2xhc3M9ImVkZ2VMYWJlbCI+PGcgY2xhc3M9ImxhYmVsIiBkYXRhLWlkPSJMX0FfQl8wIiB0cmFuc2Zvcm09InRyYW5zbGF0ZSgwLCAwKSI+PGZvcmVpZ25PYmplY3Qgd2lkdGg9IjAiIGhlaWdodD0iMCI+PGRpdiB4bWxucz0iaHR0cDovL3d3dy53My5vcmcvMTk5OS94aHRtbCIgc3R5bGU9ImRpc3BsYXk6IHRhYmxlLWNlbGw7IHdoaXRlLXNwYWNlOiBub3JtYWw7IGxpbmUtaGVpZ2h0OiAxLjU7IG1heC13aWR0aDogMjAwcHg7IHRleHQtYWxpZ246IGNlbnRlcjsiIGNsYXNzPSJsYWJlbEJrZyI+PHNwYW4gY2xhc3M9ImVkZ2VMYWJlbCI+PC9zcGFuPjwvZGl2PjwvZm9yZWlnbk9iamVjdD48L2c+PC9nPjxnIGNsYXNzPSJlZGdlTGFiZWwiPjxnIGNsYXNzPSJsYWJlbCIgZGF0YS1pZD0iTF9BX0NfMCIgdHJhbnNmb3JtPSJ0cmFuc2xhdGUoMCwgMCkiPjxmb3JlaWduT2JqZWN0IHdpZHRoPSIwIiBoZWlnaHQ9IjAiPjxkaXYgeG1sbnM9Imh0dHA6Ly93d3cudzMub3JnLzE5OTkveGh0bWwiIHN0eWxlPSJkaXNwbGF5OiB0YWJsZS1jZWxsOyB3aGl0ZS1zcGFjZTogbm9ybWFsOyBsaW5lLWhlaWdodDogMS41OyBtYXgtd2lkdGg6IDIwMHB4OyB0ZXh0LWFsaWduOiBjZW50ZXI7IiBjbGFzcz0ibGFiZWxCa2ciPjxzcGFuIGNsYXNzPSJlZGdlTGFiZWwiPjwvc3Bhbj48L2Rpdj48L2ZvcmVpZ25PYmplY3Q+PC9nPjwvZz48ZyBjbGFzcz0iZWRnZUxhYmVsIj48ZyBjbGFzcz0ibGFiZWwiIGRhdGEtaWQ9IkxfQV9EXzAiIHRyYW5zZm9ybT0idHJhbnNsYXRlKDAsIDApIj48Zm9yZWlnbk9iamVjdCB3aWR0aD0iMCIgaGVpZ2h0PSIwIj48ZGl2IHhtbG5zPSJodHRwOi8vd3d3LnczLm9yZy8xOTk5L3hodG1sIiBzdHlsZT0iZGlzcGxheTogdGFibGUtY2VsbDsgd2hpdGUtc3BhY2U6IG5vcm1hbDsgbGluZS1oZWlnaHQ6IDEuNTsgbWF4LXdpZHRoOiAyMDBweDsgdGV4dC1hbGlnbjogY2VudGVyOyIgY2xhc3M9ImxhYmVsQmtnIj48c3BhbiBjbGFzcz0iZWRnZUxhYmVsIj48L3NwYW4+PC9kaXY+PC9mb3JlaWduT2JqZWN0PjwvZz48L2c+PGcgY2xhc3M9ImVkZ2VMYWJlbCI+PGcgY2xhc3M9ImxhYmVsIiBkYXRhLWlkPSJMX0JfRV8wIiB0cmFuc2Zvcm09InRyYW5zbGF0ZSgwLCAwKSI+PGZvcmVpZ25PYmplY3Qgd2lkdGg9IjAiIGhlaWdodD0iMCI+PGRpdiB4bWxucz0iaHR0cDovL3d3dy53My5vcmcvMTk5OS94aHRtbCIgc3R5bGU9ImRpc3BsYXk6IHRhYmxlLWNlbGw7IHdoaXRlLXNwYWNlOiBub3JtYWw7IGxpbmUtaGVpZ2h0OiAxLjU7IG1heC13aWR0aDogMjAwcHg7IHRleHQtYWxpZ246IGNlbnRlcjsiIGNsYXNzPSJsYWJlbEJrZyI+PHNwYW4gY2xhc3M9ImVkZ2VMYWJlbCI+PC9zcGFuPjwvZGl2PjwvZm9yZWlnbk9iamVjdD48L2c+PC9nPjxnIGNsYXNzPSJlZGdlTGFiZWwiPjxnIGNsYXNzPSJsYWJlbCIgZGF0YS1pZD0iTF9EX0ZfMCIgdHJhbnNmb3JtPSJ0cmFuc2xhdGUoMCwgMCkiPjxmb3JlaWduT2JqZWN0IHdpZHRoPSIwIiBoZWlnaHQ9IjAiPjxkaXYgeG1sbnM9Imh0dHA6Ly93d3cudzMub3JnLzE5OTkveGh0bWwiIHN0eWxlPSJkaXNwbGF5OiB0YWJsZS1jZWxsOyB3aGl0ZS1zcGFjZTogbm9ybWFsOyBsaW5lLWhlaWdodDogMS41OyBtYXgtd2lkdGg6IDIwMHB4OyB0ZXh0LWFsaWduOiBjZW50ZXI7IiBjbGFzcz0ibGFiZWxCa2ciPjxzcGFuIGNsYXNzPSJlZGdlTGFiZWwiPjwvc3Bhbj48L2Rpdj48L2ZvcmVpZ25PYmplY3Q+PC9nPjwvZz48ZyBjbGFzcz0iZWRnZUxhYmVsIj48ZyBjbGFzcz0ibGFiZWwiIGRhdGEtaWQ9IkxfRF9HXzAiIHRyYW5zZm9ybT0idHJhbnNsYXRlKDAsIDApIj48Zm9yZWlnbk9iamVjdCB3aWR0aD0iMCIgaGVpZ2h0PSIwIj48ZGl2IHhtbG5zPSJodHRwOi8vd3d3LnczLm9yZy8xOTk5L3hodG1sIiBzdHlsZT0iZGlzcGxheTogdGFibGUtY2VsbDsgd2hpdGUtc3BhY2U6IG5vcm1hbDsgbGluZS1oZWlnaHQ6IDEuNTsgbWF4LXdpZHRoOiAyMDBweDsgdGV4dC1hbGlnbjogY2VudGVyOyIgY2xhc3M9ImxhYmVsQmtnIj48c3BhbiBjbGFzcz0iZWRnZUxhYmVsIj48L3NwYW4+PC9kaXY+PC9mb3JlaWduT2JqZWN0PjwvZz48L2c+PC9nPjxnIGNsYXNzPSJub2RlcyI+PGcgY2xhc3M9Im5vZGUgZGVmYXVsdCIgaWQ9ImZsb3djaGFydC1BLTAiIGRhdGEtaWQ9IkEiIGRhdGEtbm9kZT0idHJ1ZSIgZGF0YS1ldD0ibm9kZSIgZGF0YS1sb29rPSJuZW8iIHRyYW5zZm9ybT0idHJhbnNsYXRlKDI0Ni4wNTg1OTM3NSwgMzAuNSkiPjxyZWN0IGNsYXNzPSJiYXNpYyBsYWJlbC1jb250YWluZXIiIHN0eWxlPSIiIGRhdGEtaWQ9IkEiIHg9Ii01Ni44NjcxODc1IiB5PSItMjIuNSIgd2lkdGg9IjExMy43MzQzNzUiIGhlaWdodD0iNDUiIHN0cm9rZT0idXJsKCNncmFkaWVudCkiLz48ZyBjbGFzcz0ibGFiZWwiIHN0eWxlPSIiIHRyYW5zZm9ybT0idHJhbnNsYXRlKC00MC44NjcxODc1LCAtMTAuNSkiPjxyZWN0Lz48Zm9yZWlnbk9iamVjdCB3aWR0aD0iODEuNzM0Mzc1IiBoZWlnaHQ9IjIxIj48ZGl2IHhtbG5zPSJodHRwOi8vd3d3LnczLm9yZy8xOTk5L3hodG1sIiBzdHlsZT0iZGlzcGxheTogdGFibGUtY2VsbDsgd2hpdGUtc3BhY2U6IG5vcm1hbDsgbGluZS1oZWlnaHQ6IDEuNTsgbWF4LXdpZHRoOiAyMDBweDsgdGV4dC1hbGlnbjogY2VudGVyOyI+PHNwYW4gY2xhc3M9Im5vZGVMYWJlbCI+PHA+Q2hhbmdlU3RhdGU8L3A+PC9zcGFuPjwvZGl2PjwvZm9yZWlnbk9iamVjdD48L2c+PC9nPjxnIGNsYXNzPSJub2RlIGRlZmF1bHQiIGlkPSJmbG93Y2hhcnQtQi0xIiBkYXRhLWlkPSJCIiBkYXRhLW5vZGU9InRydWUiIGRhdGEtZXQ9Im5vZGUiIGRhdGEtbG9vaz0ibmVvIiB0cmFuc2Zvcm09InRyYW5zbGF0ZSg3MywgMTI1LjUpIj48cmVjdCBjbGFzcz0iYmFzaWMgbGFiZWwtY29udGFpbmVyIiBzdHlsZT0iIiBkYXRhLWlkPSJCIiB4PSItNTguNzk2ODc1IiB5PSItMjIuNSIgd2lkdGg9IjExNy41OTM3NSIgaGVpZ2h0PSI0NSIgc3Ryb2tlPSJ1cmwoI2dyYWRpZW50KSIvPjxnIGNsYXNzPSJsYWJlbCIgc3R5bGU9IiIgdHJhbnNmb3JtPSJ0cmFuc2xhdGUoLTQyLjc5Njg3NSwgLTEwLjUpIj48cmVjdC8+PGZvcmVpZ25PYmplY3Qgd2lkdGg9Ijg1LjU5Mzc1IiBoZWlnaHQ9IjIxIj48ZGl2IHhtbG5zPSJodHRwOi8vd3d3LnczLm9yZy8xOTk5L3hodG1sIiBzdHlsZT0iZGlzcGxheTogdGFibGUtY2VsbDsgd2hpdGUtc3BhY2U6IG5vcm1hbDsgbGluZS1oZWlnaHQ6IDEuNTsgbWF4LXdpZHRoOiAyMDBweDsgdGV4dC1hbGlnbjogY2VudGVyOyI+PHNwYW4gY2xhc3M9Im5vZGVMYWJlbCI+PHA+U3RhdGVGb2xsb3dlcjwvcD48L3NwYW4+PC9kaXY+PC9mb3JlaWduT2JqZWN0PjwvZz48L2c+PGcgY2xhc3M9Im5vZGUgZGVmYXVsdCIgaWQ9ImZsb3djaGFydC1DLTMiIGRhdGEtaWQ9IkMiIGRhdGEtbm9kZT0idHJ1ZSIgZGF0YS1ldD0ibm9kZSIgZGF0YS1sb29rPSJuZW8iIHRyYW5zZm9ybT0idHJhbnNsYXRlKDI0Ni4wNTg1OTM3NSwgMTI1LjUpIj48cmVjdCBjbGFzcz0iYmFzaWMgbGFiZWwtY29udGFpbmVyIiBzdHlsZT0iIiBkYXRhLWlkPSJDIiB4PSItNjQuMjYxNzE4NzUiIHk9Ii0yMi41IiB3aWR0aD0iMTI4LjUyMzQzNzUiIGhlaWdodD0iNDUiIHN0cm9rZT0idXJsKCNncmFkaWVudCkiLz48ZyBjbGFzcz0ibGFiZWwiIHN0eWxlPSIiIHRyYW5zZm9ybT0idHJhbnNsYXRlKC00OC4yNjE3MTg3NSwgLTEwLjUpIj48cmVjdC8+PGZvcmVpZ25PYmplY3Qgd2lkdGg9Ijk2LjUyMzQzNzUiIGhlaWdodD0iMjEiPjxkaXYgeG1sbnM9Imh0dHA6Ly93d3cudzMub3JnLzE5OTkveGh0bWwiIHN0eWxlPSJkaXNwbGF5OiB0YWJsZS1jZWxsOyB3aGl0ZS1zcGFjZTogbm9ybWFsOyBsaW5lLWhlaWdodDogMS41OyBtYXgtd2lkdGg6IDIwMHB4OyB0ZXh0LWFsaWduOiBjZW50ZXI7Ij48c3BhbiBjbGFzcz0ibm9kZUxhYmVsIj48cD5TdGF0ZUNhbmRpZGF0ZTwvcD48L3NwYW4+PC9kaXY+PC9mb3JlaWduT2JqZWN0PjwvZz48L2c+PGcgY2xhc3M9Im5vZGUgZGVmYXVsdCIgaWQ9ImZsb3djaGFydC1ELTUiIGRhdGEtaWQ9IkQiIGRhdGEtbm9kZT0idHJ1ZSIgZGF0YS1ldD0ibm9kZSIgZGF0YS1sb29rPSJuZW8iIHRyYW5zZm9ybT0idHJhbnNsYXRlKDQ2NC4yMjA3MDMxMjUsIDEyNS41KSI+PHJlY3QgY2xhc3M9ImJhc2ljIGxhYmVsLWNvbnRhaW5lciIgc3R5bGU9IiIgZGF0YS1pZD0iRCIgeD0iLTU0LjE0NDUzMTI1IiB5PSItMjIuNSIgd2lkdGg9IjEwOC4yODkwNjI1IiBoZWlnaHQ9IjQ1IiBzdHJva2U9InVybCgjZ3JhZGllbnQpIi8+PGcgY2xhc3M9ImxhYmVsIiBzdHlsZT0iIiB0cmFuc2Zvcm09InRyYW5zbGF0ZSgtMzguMTQ0NTMxMjUsIC0xMC41KSI+PHJlY3QvPjxmb3JlaWduT2JqZWN0IHdpZHRoPSI3Ni4yODkwNjI1IiBoZWlnaHQ9IjIxIj48ZGl2IHhtbG5zPSJodHRwOi8vd3d3LnczLm9yZy8xOTk5L3hodG1sIiBzdHlsZT0iZGlzcGxheTogdGFibGUtY2VsbDsgd2hpdGUtc3BhY2U6IG5vcm1hbDsgbGluZS1oZWlnaHQ6IDEuNTsgbWF4LXdpZHRoOiAyMDBweDsgdGV4dC1hbGlnbjogY2VudGVyOyI+PHNwYW4gY2xhc3M9Im5vZGVMYWJlbCI+PHA+U3RhdGVMZWFkZXI8L3A+PC9zcGFuPjwvZGl2PjwvZm9yZWlnbk9iamVjdD48L2c+PC9nPjxnIGNsYXNzPSJub2RlIGRlZmF1bHQiIGlkPSJmbG93Y2hhcnQtRS03IiBkYXRhLWlkPSJFIiBkYXRhLW5vZGU9InRydWUiIGRhdGEtZXQ9Im5vZGUiIGRhdGEtbG9vaz0ibmVvIiB0cmFuc2Zvcm09InRyYW5zbGF0ZSg3MywgMjIwLjUpIj48cmVjdCBjbGFzcz0iYmFzaWMgbGFiZWwtY29udGFpbmVyIiBzdHlsZT0iIiBkYXRhLWlkPSJFIiB4PSItNjUiIHk9Ii0yMi41IiB3aWR0aD0iMTMwIiBoZWlnaHQ9IjQ1IiBzdHJva2U9InVybCgjZ3JhZGllbnQpIi8+PGcgY2xhc3M9ImxhYmVsIiBzdHlsZT0iIiB0cmFuc2Zvcm09InRyYW5zbGF0ZSgtNDksIC0xMC41KSI+PHJlY3QvPjxmb3JlaWduT2JqZWN0IHdpZHRoPSI5OCIgaGVpZ2h0PSIyMSI+PGRpdiB4bWxucz0iaHR0cDovL3d3dy53My5vcmcvMTk5OS94aHRtbCIgc3R5bGU9ImRpc3BsYXk6IHRhYmxlLWNlbGw7IHdoaXRlLXNwYWNlOiBub3JtYWw7IGxpbmUtaGVpZ2h0OiAxLjU7IG1heC13aWR0aDogMjAwcHg7IHRleHQtYWxpZ246IGNlbnRlcjsiPjxzcGFuIGNsYXNzPSJub2RlTGFiZWwiPjxwPumHjee9rumAieS4vuWumuaXtuWZqDwvcD48L3NwYW4+PC9kaXY+PC9mb3JlaWduT2JqZWN0PjwvZz48L2c+PGcgY2xhc3M9Im5vZGUgZGVmYXVsdCIgaWQ9ImZsb3djaGFydC1GLTkiIGRhdGEtaWQ9IkYiIGRhdGEtbm9kZT0idHJ1ZSIgZGF0YS1ldD0ibm9kZSIgZGF0YS1sb29rPSJuZW8iIHRyYW5zZm9ybT0idHJhbnNsYXRlKDM1My45NzY1NjI1LCAyMjAuNSkiPjxyZWN0IGNsYXNzPSJiYXNpYyBsYWJlbC1jb250YWluZXIiIHN0eWxlPSIiIGRhdGEtaWQ9IkYiIHg9Ii0xMDUuNDg4MjgxMjUiIHk9Ii0yMi41IiB3aWR0aD0iMjEwLjk3NjU2MjUiIGhlaWdodD0iNDUiIHN0cm9rZT0idXJsKCNncmFkaWVudCkiLz48ZyBjbGFzcz0ibGFiZWwiIHN0eWxlPSIiIHRyYW5zZm9ybT0idHJhbnNsYXRlKC04OS40ODgyODEyNSwgLTEwLjUpIj48cmVjdC8+PGZvcmVpZ25PYmplY3Qgd2lkdGg9IjE3OC45NzY1NjI1IiBoZWlnaHQ9IjIxIj48ZGl2IHhtbG5zPSJodHRwOi8vd3d3LnczLm9yZy8xOTk5L3hodG1sIiBzdHlsZT0iZGlzcGxheTogdGFibGUtY2VsbDsgd2hpdGUtc3BhY2U6IG5vcm1hbDsgbGluZS1oZWlnaHQ6IDEuNTsgbWF4LXdpZHRoOiAyMDBweDsgdGV4dC1hbGlnbjogY2VudGVyOyI+PHNwYW4gY2xhc3M9Im5vZGVMYWJlbCI+PHA+5Yid5aeL5YyWbmV4dEluZGV4L21hdGNoSW5kZXg8L3A+PC9zcGFuPjwvZGl2PjwvZm9yZWlnbk9iamVjdD48L2c+PC9nPjxnIGNsYXNzPSJub2RlIGRlZmF1bHQiIGlkPSJmbG93Y2hhcnQtRy0xMSIgZGF0YS1pZD0iRyIgZGF0YS1ub2RlPSJ0cnVlIiBkYXRhLWV0PSJub2RlIiBkYXRhLWxvb2s9Im5lbyIgdHJhbnNmb3JtPSJ0cmFuc2xhdGUoNTc0LjQ2NDg0Mzc1LCAyMjAuNSkiPjxyZWN0IGNsYXNzPSJiYXNpYyBsYWJlbC1jb250YWluZXIiIHN0eWxlPSIiIGRhdGEtaWQ9IkciIHg9Ii02NSIgeT0iLTIyLjUiIHdpZHRoPSIxMzAiIGhlaWdodD0iNDUiIHN0cm9rZT0idXJsKCNncmFkaWVudCkiLz48ZyBjbGFzcz0ibGFiZWwiIHN0eWxlPSIiIHRyYW5zZm9ybT0idHJhbnNsYXRlKC00OSwgLTEwLjUpIj48cmVjdC8+PGZvcmVpZ25PYmplY3Qgd2lkdGg9Ijk4IiBoZWlnaHQ9IjIxIj48ZGl2IHhtbG5zPSJodHRwOi8vd3d3LnczLm9yZy8xOTk5L3hodG1sIiBzdHlsZT0iZGlzcGxheTogdGFibGUtY2VsbDsgd2hpdGUtc3BhY2U6IG5vcm1hbDsgbGluZS1oZWlnaHQ6IDEuNTsgbWF4LXdpZHRoOiAyMDBweDsgdGV4dC1hbGlnbjogY2VudGVyOyI+PHNwYW4gY2xhc3M9Im5vZGVMYWJlbCI+PHA+5YGc5q2i6YCJ5Li+5a6a5pe25ZmoPC9wPjwvc3Bhbj48L2Rpdj48L2ZvcmVpZ25PYmplY3Q+PC9nPjwvZz48L2c+PC9nPjwvZz48ZGVmcz48ZmlsdGVyIGlkPSJkcm9wLXNoYWRvdyIgaGVpZ2h0PSIxMzAlIiB3aWR0aD0iMTMwJSI+PGZlRHJvcFNoYWRvdyBkeD0iNCIgZHk9IjQiIHN0ZERldmlhdGlvbj0iMCIgZmxvb2Qtb3BhY2l0eT0iMC4wNiIgZmxvb2QtY29sb3I9IiNGRkZGRkYiLz48L2ZpbHRlcj48L2RlZnM+PGRlZnM+PGZpbHRlciBpZD0iZHJvcC1zaGFkb3ctc21hbGwiIGhlaWdodD0iMTUwJSIgd2lkdGg9IjE1MCUiPjxmZURyb3BTaGFkb3cgZHg9IjIiIGR5PSIyIiBzdGREZXZpYXRpb249IjAiIGZsb29kLW9wYWNpdHk9IjAuMDYiIGZsb29kLWNvbG9yPSIjRkZGRkZGIi8+PC9maWx0ZXI+PC9kZWZzPjxsaW5lYXJHcmFkaWVudCBpZD0iZXhwb3J0LXN2Zy1ncmFkaWVudCIgZ3JhZGllbnRVbml0cz0ib2JqZWN0Qm91bmRpbmdCb3giIHgxPSIwJSIgeTE9IjAlIiB4Mj0iMTAwJSIgeTI9IjAlIj48c3RvcCBvZmZzZXQ9IjAlIiBzdG9wLWNvbG9yPSIjMDA0MmViIiBzdG9wLW9wYWNpdHk9IjEiLz48c3RvcCBvZmZzZXQ9IjEwMCUiIHN0b3AtY29sb3I9IiNlYjAwNDIiIHN0b3Atb3BhY2l0eT0iMSIvPjwvbGluZWFyR3JhZGllbnQ+PC9zdmc+;" vertex="1" parent="1">
          <mxGeometry x="490" y="1520" width="825.5" height="307.44" as="geometry" />
        </mxCell>
      </root>
    </mxGraphModel>
  </diagram>
</mxfile>
